{"glyphs":{"0":{"ha":835,"x_min":58,"x_max":775,"o":"m 58 479 q 58 728 58 479 q 417 978 58 978 q 775 479 775 978 q 417 -19 775 -19 q 58 479 58 -19 m 224 479 q 224 288 224 479 q 417 97 224 97 q 610 479 610 97 q 564 766 610 671 q 417 861 518 861 q 224 479 224 861 z "},"1":{"ha":835,"x_min":176,"x_max":600,"o":"m 600 958 l 600 0 l 447 0 l 447 799 l 176 643 l 176 793 l 388 922 q 515 958 449 958 l 600 958 z "},"2":{"ha":835,"x_min":83,"x_max":757,"o":"m 311 122 l 751 122 l 751 0 l 83 0 l 83 78 l 418 415 q 553 570 514 510 q 592 696 592 631 q 551 816 592 769 q 435 863 510 863 q 258 667 278 863 l 257 653 l 104 653 l 106 667 q 209 899 119 818 q 451 979 299 979 q 678 903 599 979 q 757 710 757 828 q 706 539 757 618 q 522 331 654 460 l 311 122 z "},"3":{"ha":835,"x_min":58,"x_max":767,"o":"m 571 508 q 767 271 767 460 q 665 60 767 139 q 408 -19 563 -19 q 165 53 256 -19 q 60 275 75 126 l 58 289 l 211 289 l 213 275 q 277 143 222 189 q 415 97 332 97 q 550 142 499 97 q 601 264 601 188 q 392 429 601 428 l 364 429 l 364 542 l 392 543 q 527 590 475 544 q 579 714 579 635 q 538 821 579 781 q 426 861 496 861 q 307 816 354 861 q 251 690 260 771 l 250 676 l 99 676 l 100 690 q 202 900 113 822 q 443 978 292 978 q 664 909 583 978 q 744 732 744 840 q 699 590 744 649 q 571 508 653 532 z "},"4":{"ha":835,"x_min":47,"x_max":789,"o":"m 789 235 l 668 235 l 668 0 l 517 0 l 517 235 l 47 235 l 47 314 l 511 958 l 668 958 l 668 357 l 789 357 l 789 235 m 517 357 l 517 772 q 444 660 476 701 l 226 357 l 517 357 z "},"5":{"ha":835,"x_min":79,"x_max":771,"o":"m 451 638 q 688 549 604 638 q 771 314 771 460 q 667 70 771 160 q 418 -19 564 -19 q 81 258 110 -19 l 79 272 l 232 272 l 233 258 q 414 97 265 97 q 554 153 503 97 q 606 307 606 210 q 556 463 606 404 q 418 521 506 521 q 238 397 296 521 l 94 397 l 163 958 l 731 958 l 731 838 l 286 838 l 247 533 l 301 599 q 451 638 367 638 z "},"6":{"ha":835,"x_min":64,"x_max":767,"o":"m 450 646 q 683 557 599 646 q 767 326 767 468 q 666 76 767 171 q 415 -19 565 -19 q 64 440 64 -19 q 171 842 64 707 q 446 978 278 978 q 659 907 576 978 q 756 715 742 836 l 757 701 l 599 701 l 596 715 q 435 861 563 861 q 225 501 239 861 l 276 588 q 450 646 346 646 m 415 97 q 550 156 499 97 q 601 308 601 215 q 554 468 601 407 q 414 529 507 529 q 285 472 338 529 q 233 311 233 414 q 283 158 233 218 q 415 97 333 97 z "},"7":{"ha":835,"x_min":72,"x_max":775,"o":"m 775 958 l 775 882 l 306 0 l 142 0 l 593 838 l 72 838 l 72 958 l 775 958 z "},"8":{"ha":835,"x_min":64,"x_max":771,"o":"m 588 507 q 719 419 667 482 q 771 269 771 356 q 742 136 771 193 q 662 46 713 79 q 549 -4 611 13 q 417 -21 488 -21 q 161 50 258 -21 q 64 269 64 121 q 118 419 64 356 q 253 507 172 482 q 147 585 186 532 q 107 717 107 639 q 193 907 107 836 q 426 978 279 978 q 660 907 575 978 q 746 717 746 836 q 702 585 746 639 q 588 507 658 532 m 544 819 q 524 840 544 819 q 426 861 503 861 q 308 819 350 861 q 267 711 267 778 q 308 599 267 642 q 425 557 349 557 q 544 599 501 557 q 586 711 586 642 q 544 819 586 778 m 277 143 q 302 119 277 143 q 419 96 326 96 q 559 142 513 96 q 606 268 606 189 q 558 392 606 343 q 418 440 511 440 q 276 392 325 440 q 228 268 228 343 q 277 143 228 190 z "},"9":{"ha":835,"x_min":68,"x_max":771,"o":"m 418 978 q 771 518 771 978 q 664 116 771 251 q 389 -19 557 -19 q 174 52 257 -19 q 79 244 90 124 l 78 258 l 236 258 l 239 244 q 400 97 269 97 q 610 457 596 97 l 558 371 q 385 313 486 313 q 152 401 236 313 q 68 632 68 490 q 168 883 68 788 q 418 978 268 978 m 419 429 q 549 487 497 429 q 601 647 601 544 q 551 801 601 740 q 419 861 501 861 q 285 802 336 861 q 233 650 233 743 q 281 491 233 553 q 419 429 328 429 z "},"­":{"ha":694,"x_min":0,"x_max":694,"o":"m 0 0 l 0 972 l 694 972 l 694 0 l 0 0 m 347 549 l 583 903 l 111 903 l 347 549 m 389 486 l 625 132 l 625 840 l 389 486 m 111 69 l 583 69 l 347 424 l 111 69 m 69 840 l 69 132 l 306 486 l 69 840 z "},"²":{"ha":694,"x_min":0,"x_max":694,"o":"m 0 0 l 0 972 l 694 972 l 694 0 l 0 0 m 347 549 l 583 903 l 111 903 l 347 549 m 389 486 l 625 132 l 625 840 l 389 486 m 111 69 l 583 69 l 347 424 l 111 69 m 69 840 l 69 132 l 306 486 l 69 840 z "},"³":{"ha":694,"x_min":0,"x_max":694,"o":"m 0 0 l 0 972 l 694 972 l 694 0 l 0 0 m 347 549 l 583 903 l 111 903 l 347 549 m 389 486 l 625 132 l 625 840 l 389 486 m 111 69 l 583 69 l 347 424 l 111 69 m 69 840 l 69 132 l 306 486 l 69 840 z "},"µ":{"ha":694,"x_min":0,"x_max":694,"o":"m 0 0 l 0 972 l 694 972 l 694 0 l 0 0 m 347 549 l 583 903 l 111 903 l 347 549 m 389 486 l 625 132 l 625 840 l 389 486 m 111 69 l 583 69 l 347 424 l 111 69 m 69 840 l 69 132 l 306 486 l 69 840 z "},"¹":{"ha":694,"x_min":0,"x_max":694,"o":"m 0 0 l 0 972 l 694 972 l 694 0 l 0 0 m 347 549 l 583 903 l 111 903 l 347 549 m 389 486 l 625 132 l 625 840 l 389 486 m 111 69 l 583 69 l 347 424 l 111 69 m 69 840 l 69 132 l 306 486 l 69 840 z "},"º":{"ha":694,"x_min":0,"x_max":694,"o":"m 0 0 l 0 972 l 694 972 l 694 0 l 0 0 m 347 549 l 583 903 l 111 903 l 347 549 m 389 486 l 625 132 l 625 840 l 389 486 m 111 69 l 583 69 l 347 424 l 111 69 m 69 840 l 69 132 l 306 486 l 69 840 z "},"Ĩ":{"ha":694,"x_min":0,"x_max":694,"o":"m 0 0 l 0 972 l 694 972 l 694 0 l 0 0 m 347 549 l 583 903 l 111 903 l 347 549 m 389 486 l 625 132 l 625 840 l 389 486 m 111 69 l 583 69 l 347 424 l 111 69 m 69 840 l 69 132 l 306 486 l 69 840 z "},"ĩ":{"ha":694,"x_min":0,"x_max":694,"o":"m 0 0 l 0 972 l 694 972 l 694 0 l 0 0 m 347 549 l 583 903 l 111 903 l 347 549 m 389 486 l 625 132 l 625 840 l 389 486 m 111 69 l 583 69 l 347 424 l 111 69 m 69 840 l 69 132 l 306 486 l 69 840 z "},"―":{"ha":694,"x_min":0,"x_max":694,"o":"m 0 0 l 0 972 l 694 972 l 694 0 l 0 0 m 347 549 l 583 903 l 111 903 l 347 549 m 389 486 l 625 132 l 625 840 l 389 486 m 111 69 l 583 69 l 347 424 l 111 69 m 69 840 l 69 132 l 306 486 l 69 840 z "},"‖":{"ha":694,"x_min":0,"x_max":694,"o":"m 0 0 l 0 972 l 694 972 l 694 0 l 0 0 m 347 549 l 583 903 l 111 903 l 347 549 m 389 486 l 625 132 l 625 840 l 389 486 m 111 69 l 583 69 l 347 424 l 111 69 m 69 840 l 69 132 l 306 486 l 69 840 z "},"‗":{"ha":694,"x_min":0,"x_max":694,"o":"m 0 0 l 0 972 l 694 972 l 694 0 l 0 0 m 347 549 l 583 903 l 111 903 l 347 549 m 389 486 l 625 132 l 625 840 l 389 486 m 111 69 l 583 69 l 347 424 l 111 69 m 69 840 l 69 132 l 306 486 l 69 840 z "},"‛":{"ha":694,"x_min":0,"x_max":694,"o":"m 0 0 l 0 972 l 694 972 l 694 0 l 0 0 m 347 549 l 583 903 l 111 903 l 347 549 m 389 486 l 625 132 l 625 840 l 389 486 m 111 69 l 583 69 l 347 424 l 111 69 m 69 840 l 69 132 l 306 486 l 69 840 z "},"‟":{"ha":694,"x_min":0,"x_max":694,"o":"m 0 0 l 0 972 l 694 972 l 694 0 l 0 0 m 347 549 l 583 903 l 111 903 l 347 549 m 389 486 l 625 132 l 625 840 l 389 486 m 111 69 l 583 69 l 347 424 l 111 69 m 69 840 l 69 132 l 306 486 l 69 840 z "},"‣":{"ha":694,"x_min":0,"x_max":694,"o":"m 0 0 l 0 972 l 694 972 l 694 0 l 0 0 m 347 549 l 583 903 l 111 903 l 347 549 m 389 486 l 625 132 l 625 840 l 389 486 m 111 69 l 583 69 l 347 424 l 111 69 m 69 840 l 69 132 l 306 486 l 69 840 z "},"․":{"ha":694,"x_min":0,"x_max":694,"o":"m 0 0 l 0 972 l 694 972 l 694 0 l 0 0 m 347 549 l 583 903 l 111 903 l 347 549 m 389 486 l 625 132 l 625 840 l 389 486 m 111 69 l 583 69 l 347 424 l 111 69 m 69 840 l 69 132 l 306 486 l 69 840 z "},"‥":{"ha":694,"x_min":0,"x_max":694,"o":"m 0 0 l 0 972 l 694 972 l 694 0 l 0 0 m 347 549 l 583 903 l 111 903 l 347 549 m 389 486 l 625 132 l 625 840 l 389 486 m 111 69 l 583 69 l 347 424 l 111 69 m 69 840 l 69 132 l 306 486 l 69 840 z "},"∃":{"ha":694,"x_min":0,"x_max":694,"o":"m 0 0 l 0 972 l 694 972 l 694 0 l 0 0 m 347 549 l 583 903 l 111 903 l 347 549 m 389 486 l 625 132 l 625 840 l 389 486 m 111 69 l 583 69 l 347 424 l 111 69 m 69 840 l 69 132 l 306 486 l 69 840 z "},"∄":{"ha":694,"x_min":0,"x_max":694,"o":"m 0 0 l 0 972 l 694 972 l 694 0 l 0 0 m 347 549 l 583 903 l 111 903 l 347 549 m 389 486 l 625 132 l 625 840 l 389 486 m 111 69 l 583 69 l 347 424 l 111 69 m 69 840 l 69 132 l 306 486 l 69 840 z "},"∐":{"ha":694,"x_min":0,"x_max":694,"o":"m 0 0 l 0 972 l 694 972 l 694 0 l 0 0 m 347 549 l 583 903 l 111 903 l 347 549 m 389 486 l 625 132 l 625 840 l 389 486 m 111 69 l 583 69 l 347 424 l 111 69 m 69 840 l 69 132 l 306 486 l 69 840 z "},"∛":{"ha":694,"x_min":0,"x_max":694,"o":"m 0 0 l 0 972 l 694 972 l 694 0 l 0 0 m 347 549 l 583 903 l 111 903 l 347 549 m 389 486 l 625 132 l 625 840 l 389 486 m 111 69 l 583 69 l 347 424 l 111 69 m 69 840 l 69 132 l 306 486 l 69 840 z "},"∜":{"ha":694,"x_min":0,"x_max":694,"o":"m 0 0 l 0 972 l 694 972 l 694 0 l 0 0 m 347 549 l 583 903 l 111 903 l 347 549 m 389 486 l 625 132 l 625 840 l 389 486 m 111 69 l 583 69 l 347 424 l 111 69 m 69 840 l 69 132 l 306 486 l 69 840 z "},"∝":{"ha":694,"x_min":0,"x_max":694,"o":"m 0 0 l 0 972 l 694 972 l 694 0 l 0 0 m 347 549 l 583 903 l 111 903 l 347 549 m 389 486 l 625 132 l 625 840 l 389 486 m 111 69 l 583 69 l 347 424 l 111 69 m 69 840 l 69 132 l 306 486 l 69 840 z "},"≡":{"ha":694,"x_min":0,"x_max":694,"o":"m 0 0 l 0 972 l 694 972 l 694 0 l 0 0 m 347 549 l 583 903 l 111 903 l 347 549 m 389 486 l 625 132 l 625 840 l 389 486 m 111 69 l 583 69 l 347 424 l 111 69 m 69 840 l 69 132 l 306 486 l 69 840 z "},"≢":{"ha":694,"x_min":0,"x_max":694,"o":"m 0 0 l 0 972 l 694 972 l 694 0 l 0 0 m 347 549 l 583 903 l 111 903 l 347 549 m 389 486 l 625 132 l 625 840 l 389 486 m 111 69 l 583 69 l 347 424 l 111 69 m 69 840 l 69 132 l 306 486 l 69 840 z "},"≣":{"ha":694,"x_min":0,"x_max":694,"o":"m 0 0 l 0 972 l 694 972 l 694 0 l 0 0 m 347 549 l 583 903 l 111 903 l 347 549 m 389 486 l 625 132 l 625 840 l 389 486 m 111 69 l 583 69 l 347 424 l 111 69 m 69 840 l 69 132 l 306 486 l 69 840 z "}," ":{"ha":286,"x_min":0,"x_max":0,"o":""},"!":{"ha":350,"x_min":76,"x_max":272,"o":"m 239 261 l 110 261 l 93 958 l 256 958 l 239 261 m 104 149 q 118 163 104 149 q 175 176 132 176 q 245 149 218 176 q 272 78 272 121 q 245 8 272 35 q 175 -19 218 -19 q 104 8 132 -19 q 76 78 76 35 q 104 149 76 121 z "},"\"":{"ha":496,"x_min":100,"x_max":457,"o":"m 229 658 l 115 658 l 100 1021 l 246 1021 l 229 658 m 442 658 l 328 658 l 311 1021 l 457 1021 l 442 658 z "},"#":{"ha":835,"x_min":97,"x_max":736,"o":"m 594 569 l 557 390 l 694 390 l 694 299 l 538 299 l 474 0 l 378 0 l 442 299 l 317 299 l 253 0 l 157 0 l 221 299 l 97 299 l 97 390 l 240 390 l 278 569 l 139 569 l 139 661 l 297 661 l 361 958 l 457 958 l 393 661 l 518 661 l 582 958 l 678 958 l 614 661 l 736 661 l 736 569 l 594 569 m 499 569 l 374 569 l 336 390 l 461 390 l 499 569 z "},"$":{"ha":835,"x_min":69,"x_max":763,"o":"m 763 254 q 682 67 763 139 q 472 -17 601 -4 l 472 -125 l 378 -125 l 378 -18 q 158 66 240 -7 q 69 264 76 139 l 225 264 q 273 154 233 197 q 378 99 313 111 l 378 421 q 174 525 242 461 q 106 703 106 589 q 181 892 106 821 q 378 975 257 963 l 378 1083 l 472 1083 l 472 976 q 670 890 599 964 q 756 700 742 815 l 600 700 q 472 861 585 838 l 472 558 q 696 438 629 508 q 763 254 763 368 m 258 722 q 287 629 258 663 q 378 575 315 596 l 378 861 q 258 722 258 840 m 472 401 l 472 97 q 607 240 607 115 q 472 401 607 354 z "},"%":{"ha":1043,"x_min":54,"x_max":989,"o":"m 264 974 q 417 914 360 974 q 474 750 474 854 q 417 585 474 646 q 264 525 360 525 q 110 585 167 525 q 54 750 54 646 q 110 914 54 854 q 264 974 167 974 m 279 0 l 146 0 l 768 958 l 901 958 l 279 0 m 264 882 q 201 848 224 882 q 179 750 179 814 q 201 651 179 686 q 264 617 224 617 q 326 651 303 617 q 349 750 349 686 q 326 848 349 814 q 264 882 303 882 m 779 429 q 933 369 876 429 q 989 206 989 310 q 933 41 989 101 q 779 -19 876 -19 q 626 41 683 -19 q 569 206 569 101 q 626 369 569 310 q 779 429 683 429 m 779 338 q 717 303 740 338 q 694 206 694 269 q 717 107 694 142 q 779 72 740 72 q 842 107 819 72 q 864 206 864 142 q 842 303 864 269 q 779 338 819 338 z "},"&":{"ha":921,"x_min":82,"x_max":889,"o":"m 889 547 l 889 425 l 757 425 l 757 13 q 465 -19 615 -19 q 182 40 282 -19 q 82 242 82 99 q 142 401 82 333 q 306 489 203 468 q 175 567 224 510 q 126 704 126 624 q 222 903 126 829 q 474 978 317 978 q 633 964 564 978 l 633 847 q 472 861 563 861 q 339 820 386 861 q 292 706 292 779 q 451 549 292 556 q 536 547 476 547 l 604 547 l 604 690 l 757 690 l 757 547 l 889 547 m 247 264 q 300 135 247 174 q 468 97 353 97 q 604 108 539 97 l 604 425 l 531 425 q 449 424 476 425 q 297 372 346 415 q 247 264 247 329 z "},"'":{"ha":260,"x_min":56,"x_max":201,"o":"m 185 658 l 71 658 l 56 1021 l 201 1021 l 185 658 z "},"(":{"ha":468,"x_min":146,"x_max":417,"o":"m 326 1083 l 417 1083 q 247 486 247 810 q 417 -111 247 163 l 326 -111 q 193 160 240 6 q 146 486 146 315 q 326 1083 146 839 z "},")":{"ha":467,"x_min":44,"x_max":315,"o":"m 44 1083 l 135 1083 q 315 486 315 839 q 268 160 315 315 q 135 -111 221 6 l 44 -111 q 214 486 214 163 q 44 1083 214 810 z "},"*":{"ha":803,"x_min":128,"x_max":675,"o":"m 439 424 l 643 506 l 675 406 l 463 353 l 615 171 l 531 108 l 401 311 l 272 108 l 188 171 l 340 353 l 128 406 l 160 506 l 364 424 l 349 660 l 454 660 l 439 424 z "},"+":{"ha":835,"x_min":121,"x_max":714,"o":"m 714 394 l 465 394 l 465 115 l 369 115 l 369 394 l 121 394 l 121 483 l 369 483 l 369 765 l 465 765 l 465 483 l 714 483 l 714 394 z "},",":{"ha":322,"x_min":-42,"x_max":222,"o":"m 222 150 l 92 -168 l -42 -168 l 68 164 l 222 164 l 222 150 z "},"-":{"ha":394,"x_min":44,"x_max":350,"o":"m 350 347 l 44 347 l 44 439 l 350 439 l 350 347 z "},".":{"ha":322,"x_min":53,"x_max":256,"o":"m 81 155 q 95 169 81 155 q 154 183 110 183 q 227 155 199 183 q 256 82 256 126 q 226 10 256 39 q 154 -19 197 -19 q 81 9 110 -19 q 53 82 53 38 q 81 155 53 126 z "},"/":{"ha":436,"x_min":-7,"x_max":443,"o":"m 94 -42 l -7 -42 l 342 1000 l 443 1000 l 94 -42 z "},":":{"ha":322,"x_min":53,"x_max":256,"o":"m 81 728 q 95 743 81 728 q 154 757 110 757 q 227 728 199 757 q 256 656 256 700 q 226 583 256 611 q 154 554 197 554 q 81 583 110 554 q 53 656 53 611 q 81 728 53 700 m 81 155 q 95 169 81 155 q 154 183 110 183 q 227 155 199 183 q 256 82 256 126 q 226 10 256 39 q 154 -19 197 -19 q 81 9 110 -19 q 53 82 53 38 q 81 155 53 126 z "},";":{"ha":322,"x_min":-42,"x_max":256,"o":"m 81 728 q 95 743 81 728 q 154 757 110 757 q 227 728 199 757 q 256 656 256 700 q 226 583 256 611 q 154 554 197 554 q 81 583 110 554 q 53 656 53 611 q 81 728 53 700 m 224 156 l 92 -168 l -42 -168 l 68 175 l 224 175 l 224 156 z "},"<":{"ha":835,"x_min":144,"x_max":726,"o":"m 726 586 l 243 369 l 726 153 l 726 39 l 144 310 l 144 428 l 726 699 l 726 586 z "},"=":{"ha":835,"x_min":114,"x_max":721,"o":"m 721 533 l 114 533 l 114 622 l 721 622 l 721 533 m 721 256 l 114 256 l 114 344 l 721 344 l 721 256 z "},">":{"ha":835,"x_min":96,"x_max":676,"o":"m 676 428 l 676 310 l 96 39 l 96 150 l 578 367 l 96 583 l 96 699 l 676 428 z "},"?":{"ha":725,"x_min":47,"x_max":675,"o":"m 374 978 q 595 907 515 978 q 675 721 675 836 q 640 581 675 646 q 529 444 606 517 q 447 349 468 386 q 421 261 425 313 l 281 261 q 308 374 286 326 q 386 483 331 421 q 483 611 457 563 q 510 715 510 660 q 472 822 510 783 q 367 861 435 861 q 251 815 294 861 q 203 679 208 768 l 47 679 q 140 897 51 817 q 374 978 229 978 m 281 149 q 295 163 281 149 q 351 176 308 176 q 422 149 394 176 q 450 78 450 121 q 422 8 450 35 q 351 -19 394 -19 q 281 8 308 -19 q 254 78 254 35 q 281 149 254 121 z "},"@":{"ha":1211,"x_min":72,"x_max":1132,"o":"m 904 649 l 828 328 q 817 256 817 283 q 871 196 817 196 q 983 265 936 196 q 1031 461 1031 335 q 926 742 1031 642 q 660 842 822 842 q 483 808 569 842 q 328 713 397 774 q 216 555 258 651 q 174 344 174 458 q 284 45 174 151 q 574 -61 394 -61 q 913 44 768 -61 l 950 -36 q 565 -156 772 -156 q 383 -125 469 -156 q 226 -36 297 -94 q 114 119 156 22 q 72 340 72 217 q 157 655 72 517 q 376 865 242 793 q 664 936 510 936 q 1003 804 875 936 q 1132 467 1132 672 q 1045 193 1132 285 q 836 101 958 101 q 679 213 703 101 l 647 147 q 513 96 583 96 q 375 150 432 96 q 318 322 318 204 q 401 569 318 465 q 610 674 483 674 q 728 632 690 674 l 742 560 l 768 649 l 904 649 m 689 347 l 704 413 q 700 526 722 490 q 631 563 678 563 q 517 494 560 563 q 474 332 474 426 q 556 207 474 207 q 639 248 603 207 q 689 347 675 289 z "},"A":{"ha":911,"x_min":32,"x_max":908,"o":"m 639 317 l 299 317 l 194 0 l 32 0 l 376 958 l 574 958 l 908 0 l 743 0 l 639 317 m 339 438 l 599 438 l 472 832 l 339 438 z "},"B":{"ha":890,"x_min":132,"x_max":840,"o":"m 649 513 q 840 283 840 465 q 767 92 840 161 q 586 7 693 22 q 458 0 539 0 l 132 0 l 132 958 l 442 958 q 567 953 519 958 q 744 877 682 938 q 806 717 806 817 q 649 513 806 565 m 285 838 l 285 554 l 451 554 q 524 560 490 554 q 644 700 644 579 q 514 833 644 819 q 442 838 481 838 l 285 838 m 539 124 q 640 169 601 129 q 679 276 679 208 q 538 432 679 415 q 465 436 510 436 l 285 436 l 285 122 l 474 122 q 539 124 521 122 z "},"C":{"ha":983,"x_min":68,"x_max":928,"o":"m 526 978 q 809 888 707 978 q 926 650 911 799 l 928 636 l 776 636 l 774 650 q 524 861 731 861 q 313 757 392 861 q 233 482 233 653 q 311 201 233 306 q 517 97 389 97 q 683 153 621 97 q 767 311 746 210 l 769 325 l 921 325 l 919 311 q 797 72 904 164 q 510 -19 690 -19 q 188 117 307 -19 q 68 475 68 254 q 196 839 68 700 q 526 978 324 978 z "},"D":{"ha":999,"x_min":132,"x_max":950,"o":"m 564 953 q 844 815 739 932 q 950 490 950 699 q 841 155 950 282 q 558 6 732 28 q 436 0 510 0 l 132 0 l 132 958 l 442 958 q 564 953 515 958 m 532 128 q 718 239 650 144 q 786 490 786 333 q 720 726 786 639 q 538 831 654 814 q 428 838 500 838 l 285 838 l 285 122 l 422 122 q 532 128 501 122 z "},"E":{"ha":833,"x_min":132,"x_max":794,"o":"m 794 122 l 794 0 l 132 0 l 132 958 l 781 958 l 781 838 l 285 838 l 285 540 l 742 540 l 742 419 l 285 419 l 285 122 l 794 122 z "},"F":{"ha":804,"x_min":132,"x_max":781,"o":"m 285 838 l 285 540 l 728 540 l 728 419 l 285 419 l 285 0 l 132 0 l 132 958 l 781 958 l 781 838 l 285 838 z "},"G":{"ha":1003,"x_min":68,"x_max":932,"o":"m 558 475 l 921 475 l 921 0 l 793 0 l 788 163 l 744 69 q 503 -19 663 -19 q 184 117 300 -19 q 68 475 68 253 q 197 839 68 700 q 529 978 326 978 q 813 888 711 978 q 931 650 915 799 l 932 636 l 779 636 l 776 650 q 526 861 736 861 q 313 757 393 861 q 233 482 233 653 q 312 201 233 306 q 519 97 390 97 q 697 167 626 97 q 772 353 767 238 l 558 353 l 558 475 z "},"H":{"ha":1028,"x_min":132,"x_max":928,"o":"m 928 958 l 928 0 l 776 0 l 776 408 l 285 408 l 285 0 l 132 0 l 132 958 l 285 958 l 285 532 l 776 532 l 776 958 l 928 958 z "},"I":{"ha":385,"x_min":132,"x_max":285,"o":"m 285 0 l 132 0 l 132 958 l 285 958 l 285 0 z "},"J":{"ha":789,"x_min":74,"x_max":713,"o":"m 713 958 l 713 379 q 708 256 713 310 q 620 54 701 128 q 385 -19 539 -19 q 159 61 239 -19 q 75 283 79 142 l 74 336 l 226 336 l 229 283 q 399 97 239 97 q 558 265 544 97 q 560 372 560 294 l 560 958 l 713 958 z "},"K":{"ha":893,"x_min":132,"x_max":911,"o":"m 481 494 l 889 0 l 685 0 l 369 400 l 285 308 l 285 0 l 132 0 l 132 958 l 285 958 l 285 471 l 731 958 l 911 958 l 481 494 z "},"L":{"ha":817,"x_min":132,"x_max":794,"o":"m 794 126 l 794 0 l 132 0 l 132 958 l 285 958 l 285 126 l 794 126 z "},"M":{"ha":1222,"x_min":132,"x_max":1122,"o":"m 1122 958 l 1122 0 l 971 0 l 971 471 q 974 814 971 713 q 869 472 929 650 l 715 0 l 539 0 l 383 474 q 282 813 317 678 q 285 471 285 710 l 285 0 l 132 0 l 132 958 l 378 958 l 631 136 l 883 958 l 1122 958 z "},"N":{"ha":1024,"x_min":132,"x_max":924,"o":"m 924 0 l 704 0 l 279 790 q 285 458 285 644 l 285 0 l 132 0 l 132 958 l 347 958 l 776 163 q 772 497 772 325 l 772 958 l 922 958 l 924 0 z "},"O":{"ha":1042,"x_min":68,"x_max":992,"o":"m 531 978 q 869 842 747 978 q 992 479 992 706 q 869 117 992 253 q 531 -19 747 -19 q 191 117 314 -19 q 68 479 68 253 q 190 842 68 706 q 531 978 313 978 m 531 97 q 749 199 669 97 q 828 479 828 301 q 749 760 828 658 q 531 861 669 861 q 311 760 390 861 q 232 479 232 658 q 311 199 232 300 q 531 97 390 97 z "},"P":{"ha":847,"x_min":132,"x_max":829,"o":"m 576 953 q 761 865 693 938 q 829 668 829 792 q 758 472 829 546 q 576 383 686 397 q 446 378 532 378 l 285 378 l 285 0 l 132 0 l 132 958 l 446 958 q 576 953 532 958 m 547 507 q 635 556 601 517 q 668 668 668 596 q 635 780 668 740 q 547 829 601 819 q 450 835 514 835 l 285 835 l 285 501 l 450 501 q 547 507 514 501 z "},"Q":{"ha":1039,"x_min":68,"x_max":1001,"o":"m 826 121 q 1001 31 911 106 l 919 -71 q 813 -12 853 -26 q 731 3 772 3 q 629 -10 688 3 q 531 -19 586 -19 q 191 117 314 -19 q 68 479 68 253 q 190 842 68 706 q 531 978 313 978 q 869 842 747 978 q 992 479 992 706 q 949 273 992 367 q 826 121 907 179 m 311 760 q 272 709 311 760 q 232 479 232 658 q 311 199 232 300 q 531 97 390 97 q 749 199 669 97 q 828 479 828 301 q 749 760 828 658 q 531 861 669 861 q 311 760 390 861 z "},"R":{"ha":882,"x_min":132,"x_max":858,"o":"m 792 247 q 858 0 808 68 l 690 0 q 642 228 657 83 q 504 399 621 392 q 433 400 481 400 l 285 400 l 285 0 l 132 0 l 132 958 l 463 958 q 594 953 549 958 q 838 697 838 921 q 789 551 838 608 q 660 468 740 493 q 792 247 775 418 m 285 518 l 444 518 q 531 521 507 518 q 637 567 597 528 q 676 678 676 606 q 543 832 676 814 q 454 838 510 838 l 285 838 l 285 518 z "},"S":{"ha":826,"x_min":67,"x_max":786,"o":"m 439 978 q 676 898 592 978 q 775 686 760 818 l 617 686 q 560 815 608 769 q 431 861 513 861 q 315 828 360 861 q 269 729 269 794 q 316 622 269 660 q 475 558 363 585 q 710 449 635 521 q 786 260 786 378 q 688 57 786 133 q 446 -19 590 -19 q 181 58 281 -19 q 67 278 81 135 l 225 278 q 301 144 243 190 q 446 97 360 97 q 574 136 522 97 q 625 239 625 175 q 576 357 625 314 q 411 426 528 400 q 185 524 261 461 q 108 704 108 588 q 204 903 108 828 q 439 978 300 978 z "},"T":{"ha":857,"x_min":40,"x_max":861,"o":"m 861 838 l 526 838 l 526 0 l 375 0 l 375 838 l 40 838 l 40 958 l 861 958 l 861 838 z "},"U":{"ha":960,"x_min":122,"x_max":874,"o":"m 874 958 l 874 371 q 871 272 874 308 q 767 62 860 143 q 497 -19 675 -19 q 227 62 319 -19 q 125 272 135 143 q 122 371 122 308 l 122 958 l 274 958 l 274 368 q 276 290 274 313 q 340 149 283 201 q 497 97 397 97 q 656 149 599 97 q 719 290 713 201 q 722 368 722 313 l 722 958 l 874 958 z "},"V":{"ha":906,"x_min":44,"x_max":921,"o":"m 576 0 l 379 0 l 44 958 l 210 958 l 481 117 l 758 958 l 921 958 l 576 0 z "},"W":{"ha":1344,"x_min":36,"x_max":1342,"o":"m 1342 958 l 1081 0 l 879 0 l 688 817 l 486 0 l 283 0 l 36 958 l 204 958 l 388 126 l 586 944 l 796 944 l 989 122 l 1183 958 l 1342 958 z "},"X":{"ha":900,"x_min":31,"x_max":899,"o":"m 721 0 l 460 388 l 210 0 l 31 0 l 374 483 l 56 958 l 231 958 l 467 583 l 713 958 l 888 958 l 554 488 l 899 0 l 721 0 z "},"Y":{"ha":836,"x_min":25,"x_max":854,"o":"m 515 375 l 515 0 l 364 0 l 364 375 l 25 958 l 199 958 l 446 515 l 685 958 l 854 958 l 515 375 z "},"Z":{"ha":840,"x_min":67,"x_max":807,"o":"m 807 122 l 807 0 l 67 0 l 67 117 l 622 838 l 106 838 l 106 958 l 800 958 l 800 839 l 249 122 l 807 122 z "},"[":{"ha":463,"x_min":140,"x_max":404,"o":"m 404 1083 l 404 992 l 235 992 l 235 -19 l 404 -19 l 404 -111 l 140 -111 l 140 1083 l 404 1083 z "},"\\":{"ha":436,"x_min":-7,"x_max":443,"o":"m 443 -42 l 342 -42 l -7 1000 l 94 1000 l 443 -42 z "},"]":{"ha":450,"x_min":46,"x_max":310,"o":"m 310 -111 l 46 -111 l 46 -19 l 215 -19 l 215 992 l 46 992 l 46 1083 l 310 1083 l 310 -111 z "},"^":{"ha":835,"x_min":119,"x_max":714,"o":"m 604 299 l 418 764 l 231 299 l 119 299 l 361 856 l 472 856 l 714 299 l 604 299 z "},"_":{"ha":694,"x_min":69,"x_max":625,"o":"m 625 -121 l 69 -121 l 69 -29 l 625 -29 l 625 -121 z "},"`":{"ha":417,"x_min":32,"x_max":265,"o":"m 265 803 l 174 803 l 32 961 l 171 961 l 265 803 z "},"a":{"ha":757,"x_min":49,"x_max":672,"o":"m 521 0 l 507 107 l 469 28 q 286 -19 401 -19 q 116 37 183 -19 q 49 193 49 93 q 458 446 49 446 l 506 446 l 506 464 q 503 544 506 517 q 374 646 496 646 q 231 504 243 646 l 78 504 q 167 690 85 624 q 376 757 249 757 q 654 551 633 757 q 658 447 658 506 l 658 188 q 672 0 658 103 l 521 0 m 342 92 q 460 140 415 92 q 506 276 506 189 l 506 344 q 288 322 367 356 q 210 206 210 288 q 342 92 210 92 z "},"b":{"ha":869,"x_min":96,"x_max":829,"o":"m 497 757 q 740 652 651 757 q 829 382 829 547 q 727 85 829 189 q 472 -19 625 -19 q 297 26 356 -19 l 249 100 l 249 0 l 96 0 l 96 1021 l 249 1021 l 249 622 l 304 701 q 497 757 371 757 m 454 92 q 609 163 550 92 q 668 368 668 235 q 613 569 668 492 q 461 646 558 646 q 308 581 368 646 q 249 376 249 515 l 249 339 q 310 153 249 214 q 454 92 371 92 z "},"c":{"ha":756,"x_min":40,"x_max":719,"o":"m 397 757 q 620 681 535 757 q 719 482 706 606 l 565 482 q 393 646 533 646 q 255 577 308 646 q 201 376 201 508 q 253 163 201 233 q 388 92 306 92 q 499 131 454 92 q 560 244 543 169 l 715 244 q 601 48 690 115 q 379 -19 513 -19 q 134 78 228 -19 q 40 365 40 176 q 143 652 40 547 q 397 757 246 757 z "},"d":{"ha":874,"x_min":40,"x_max":774,"o":"m 774 1021 l 774 0 l 621 0 l 621 117 l 565 36 q 372 -19 496 -19 q 129 85 218 -19 q 40 357 40 190 q 142 653 40 550 q 397 757 244 757 q 572 711 514 757 l 621 638 l 621 1021 l 774 1021 m 407 92 q 561 157 501 92 q 621 361 621 222 l 621 400 q 560 585 621 524 q 414 646 499 646 q 260 574 319 646 q 201 369 201 503 q 256 169 201 246 q 407 92 310 92 z "},"e":{"ha":781,"x_min":40,"x_max":731,"o":"m 731 388 q 728 326 731 353 l 199 326 q 392 92 215 92 q 507 131 460 92 q 565 239 554 169 l 719 239 q 604 47 696 113 q 386 -19 513 -19 q 136 79 232 -19 q 40 367 40 178 q 141 649 40 542 q 401 757 242 757 q 644 653 557 757 q 731 388 731 550 m 396 646 q 264 592 315 646 q 200 433 213 538 l 574 433 q 520 591 565 536 q 396 646 475 646 z "},"f":{"ha":433,"x_min":29,"x_max":424,"o":"m 264 858 q 260 788 260 829 l 260 732 l 411 732 l 411 625 l 260 625 l 260 0 l 108 0 l 108 625 l 29 625 l 29 732 l 108 732 l 108 779 q 111 867 108 842 q 178 1000 121 953 q 339 1047 236 1047 q 424 1039 386 1047 l 424 925 q 313 921 356 938 q 264 858 269 904 z "},"g":{"ha":874,"x_min":40,"x_max":774,"o":"m 774 738 l 774 183 q 772 40 774 81 q 669 -210 767 -125 q 403 -296 572 -296 q 160 -233 246 -296 q 63 -49 74 -169 l 61 -35 l 211 -35 l 213 -47 q 270 -144 219 -108 q 404 -181 321 -181 q 560 -128 504 -181 q 619 24 615 -75 q 621 108 621 56 l 621 124 l 565 43 q 376 -12 496 -12 q 130 91 219 -12 q 40 360 40 194 q 142 654 40 551 q 397 757 244 757 q 572 711 514 757 l 621 638 l 621 738 l 774 738 m 407 99 q 561 164 501 99 q 621 368 621 229 l 621 400 q 560 585 621 524 q 414 646 499 646 q 260 576 319 646 q 201 374 201 506 q 256 175 201 251 q 407 99 310 99 z "},"h":{"ha":842,"x_min":96,"x_max":751,"o":"m 747 546 q 751 415 751 489 l 751 0 l 599 0 l 599 399 q 596 503 599 465 q 440 644 583 646 q 301 567 354 642 q 249 331 249 493 l 249 0 l 96 0 l 96 1028 l 249 1028 l 249 615 l 299 700 q 485 757 374 757 q 669 701 601 757 q 747 546 736 644 z "},"i":{"ha":349,"x_min":83,"x_max":263,"o":"m 108 969 q 121 982 108 969 q 172 994 133 994 q 237 969 211 994 q 263 907 263 944 q 237 843 263 868 q 172 818 211 818 q 108 843 133 818 q 83 907 83 868 q 108 969 83 944 m 249 0 l 96 0 l 96 738 l 249 738 l 249 0 z "},"j":{"ha":340,"x_min":-31,"x_max":256,"o":"m 167 994 q 231 971 207 994 q 256 907 256 947 q 231 842 256 867 q 167 818 207 818 q 101 842 125 818 q 76 907 76 867 q 101 971 76 947 q 167 994 125 994 m 242 738 l 242 -43 q 239 -132 242 -82 q 183 -251 232 -211 q 33 -292 135 -292 q -31 -289 -11 -292 l -31 -174 q 88 -110 79 -183 q 90 -47 90 -90 l 90 738 l 242 738 z "},"k":{"ha":764,"x_min":96,"x_max":763,"o":"m 314 303 l 249 231 l 249 0 l 96 0 l 96 1021 l 249 1021 l 249 382 l 571 738 l 758 738 l 422 392 l 763 0 l 564 0 l 314 303 z "},"l":{"ha":364,"x_min":90,"x_max":332,"o":"m 243 1021 l 243 225 q 244 156 243 178 q 265 113 247 124 q 332 106 283 101 l 332 -1 q 232 -8 281 -8 q 92 115 99 -8 q 90 221 90 143 l 90 1021 l 243 1021 z "},"m":{"ha":1226,"x_min":96,"x_max":1136,"o":"m 1129 576 q 1136 446 1136 529 l 1136 0 l 983 0 l 983 390 q 978 524 983 474 q 840 644 963 644 q 692 371 692 644 l 692 0 l 540 0 l 540 390 q 535 524 540 474 q 397 644 518 644 q 249 371 249 644 l 249 0 l 96 0 l 96 738 l 249 738 l 249 628 l 299 714 q 456 757 353 757 q 596 719 540 757 q 674 617 651 681 l 742 714 q 899 757 799 757 q 1057 707 997 757 q 1129 576 1117 657 z "},"n":{"ha":842,"x_min":96,"x_max":751,"o":"m 747 546 q 751 415 751 489 l 751 0 l 599 0 l 599 399 q 596 503 599 465 q 440 644 583 644 q 301 569 354 644 q 249 331 249 493 l 249 0 l 96 0 l 96 738 l 249 738 l 249 615 l 299 700 q 485 757 374 757 q 669 701 601 757 q 747 546 736 644 z "},"o":{"ha":826,"x_min":40,"x_max":788,"o":"m 138 648 q 186 702 138 648 q 414 757 235 757 q 690 648 593 757 q 788 369 788 539 q 690 90 788 200 q 414 -19 592 -19 q 138 90 235 -19 q 40 369 40 200 q 138 648 40 539 m 414 92 q 569 167 513 92 q 625 369 625 243 q 569 571 625 496 q 414 646 513 646 q 258 571 314 646 q 201 369 201 496 q 258 167 201 243 q 414 92 314 92 z "},"p":{"ha":869,"x_min":96,"x_max":829,"o":"m 497 757 q 740 652 651 757 q 829 382 829 547 q 727 85 829 189 q 472 -19 625 -19 q 297 26 356 -19 l 249 100 l 249 -272 l 96 -272 l 96 738 l 249 738 l 249 622 l 304 701 q 497 757 371 757 m 454 92 q 609 163 550 92 q 668 368 668 235 q 613 569 668 492 q 461 646 558 646 q 308 581 368 646 q 249 376 249 515 l 249 339 q 310 153 249 214 q 454 92 371 92 z "},"q":{"ha":874,"x_min":40,"x_max":774,"o":"m 774 738 l 774 -272 l 621 -272 l 621 117 l 565 36 q 372 -19 496 -19 q 129 85 218 -19 q 40 357 40 190 q 142 653 40 550 q 397 757 244 757 q 572 711 514 757 l 621 638 l 621 738 l 774 738 m 407 92 q 561 157 501 92 q 621 361 621 222 l 621 400 q 560 585 621 524 q 414 646 499 646 q 260 574 319 646 q 201 369 201 503 q 256 169 201 246 q 407 92 310 92 z "},"r":{"ha":490,"x_min":96,"x_max":476,"o":"m 425 756 q 476 747 453 756 l 476 628 q 308 575 368 635 q 249 383 249 515 l 249 0 l 96 0 l 96 738 l 249 738 l 249 613 l 311 714 q 425 756 364 756 z "},"s":{"ha":661,"x_min":32,"x_max":625,"o":"m 135 698 q 173 727 135 698 q 333 757 210 757 q 529 694 457 757 q 614 526 601 631 l 458 526 q 322 650 435 650 q 242 624 269 650 q 215 554 215 597 q 253 481 215 507 q 379 431 292 454 q 565 344 506 399 q 625 194 625 289 q 544 36 625 92 q 338 -19 464 -19 q 128 40 210 -19 q 32 221 47 100 l 186 221 q 343 89 211 89 q 435 113 399 89 q 471 183 471 138 q 431 260 471 231 q 296 315 390 290 q 122 395 183 344 q 61 536 61 446 q 135 698 61 639 z "},"t":{"ha":465,"x_min":22,"x_max":422,"o":"m 278 625 l 278 239 q 279 178 278 197 q 310 108 283 124 q 413 100 338 93 l 413 -6 q 300 -14 354 -14 q 174 19 214 -14 q 128 126 133 53 q 126 225 126 151 l 126 625 l 22 625 l 22 732 l 126 732 l 126 908 l 278 908 l 278 732 l 422 732 l 422 625 l 278 625 z "},"u":{"ha":839,"x_min":85,"x_max":739,"o":"m 739 738 l 739 0 l 588 0 l 588 126 l 536 35 q 350 -19 460 -19 q 173 34 240 -19 q 92 168 106 88 q 85 299 85 215 l 85 738 l 236 738 l 236 329 q 242 228 236 278 q 290 130 250 165 q 400 94 331 94 q 537 166 486 94 q 588 390 588 238 l 588 738 l 739 738 z "},"v":{"ha":747,"x_min":1,"x_max":743,"o":"m 743 738 l 461 0 l 283 0 l 1 738 l 169 738 l 376 113 l 581 738 l 743 738 z "},"w":{"ha":1119,"x_min":1,"x_max":1115,"o":"m 1115 738 l 881 0 l 706 0 l 560 596 l 413 0 l 236 0 l 1 738 l 174 738 l 325 136 l 468 736 l 654 736 l 801 135 l 953 738 l 1115 738 z "},"x":{"ha":707,"x_min":-7,"x_max":694,"o":"m 435 375 l 694 0 l 518 0 l 343 278 l 168 0 l -7 0 l 256 374 l 3 738 l 182 738 l 350 471 l 517 738 l 692 738 l 435 375 z "},"y":{"ha":746,"x_min":1,"x_max":742,"o":"m 742 738 l 442 -47 q 326 -235 390 -179 q 161 -292 261 -292 q 89 -287 111 -292 l 89 -175 q 138 -176 107 -176 q 228 -150 192 -176 q 288 -61 264 -124 l 299 -35 l 1 738 l 172 738 l 375 114 l 576 738 l 742 738 z "},"z":{"ha":664,"x_min":33,"x_max":624,"o":"m 624 110 l 624 0 l 33 0 l 33 106 l 449 622 l 61 622 l 61 732 l 618 732 l 618 622 l 206 110 l 624 110 z "},"{":{"ha":465,"x_min":106,"x_max":407,"o":"m 407 992 l 386 992 q 306 976 329 992 q 283 926 283 961 q 299 792 283 897 q 317 628 317 664 q 199 488 317 508 q 286 441 256 478 q 317 344 317 404 q 299 181 317 308 q 283 46 283 76 q 306 -4 283 11 q 386 -19 329 -19 l 407 -19 l 407 -111 l 378 -111 q 235 -77 281 -111 q 189 40 189 -43 q 206 194 189 85 q 219 340 219 296 q 194 410 219 385 q 106 440 168 435 l 106 532 q 194 563 168 538 q 219 632 219 589 q 206 778 219 676 q 189 933 189 888 q 235 1049 189 1015 q 378 1083 281 1083 l 407 1083 l 407 992 z "},"|":{"ha":369,"x_min":135,"x_max":235,"o":"m 235 -278 l 135 -278 l 135 1111 l 235 1111 l 235 -278 z "},"}":{"ha":465,"x_min":58,"x_max":360,"o":"m 360 532 l 360 440 q 272 410 297 435 q 246 340 246 385 q 260 194 246 296 q 276 40 276 85 q 231 -77 276 -43 q 88 -111 185 -111 l 58 -111 l 58 -19 l 79 -19 q 159 -4 136 -19 q 182 46 182 11 q 167 181 182 76 q 149 344 149 308 q 267 485 149 465 q 180 532 211 494 q 149 628 149 569 q 167 792 149 664 q 182 926 182 897 q 159 976 182 961 q 79 992 136 992 l 58 992 l 58 1083 l 88 1083 q 231 1049 185 1083 q 276 933 276 1015 q 260 778 276 888 q 246 632 246 676 q 272 563 246 589 q 360 532 297 538 z "},"~":{"ha":835,"x_min":111,"x_max":724,"o":"m 632 513 l 724 513 q 563 310 724 310 q 492 322 524 310 q 399 367 461 333 q 269 415 308 415 q 203 310 203 415 l 111 310 q 271 513 111 513 q 342 501 310 513 q 436 456 374 489 q 565 407 526 407 q 617 433 601 407 q 632 513 632 458 z "},"¡":{"ha":350,"x_min":76,"x_max":272,"o":"m 245 588 q 232 574 245 588 q 175 560 218 560 q 104 588 132 560 q 76 658 76 615 q 104 728 76 701 q 175 756 132 756 q 245 728 218 756 q 272 658 272 701 q 245 588 272 615 m 110 476 l 239 476 l 256 -222 l 93 -222 l 110 476 z "},"¢":{"ha":814,"x_min":74,"x_max":753,"o":"m 467 640 l 467 97 q 600 244 574 122 l 749 244 q 652 63 726 129 q 467 -17 578 -4 l 467 -125 l 372 -125 l 372 -18 q 156 92 238 -6 q 74 365 74 190 q 158 628 74 526 q 372 751 242 731 l 372 861 l 467 861 l 467 754 q 665 670 589 744 q 753 481 740 596 l 606 481 q 467 640 578 618 m 228 375 q 267 187 228 256 q 372 99 307 118 l 372 636 q 267 551 307 618 q 228 375 228 485 z "},"£":{"ha":835,"x_min":93,"x_max":749,"o":"m 749 122 l 749 0 l 93 0 l 93 108 q 240 289 240 142 q 210 431 240 358 l 106 431 l 106 519 l 169 519 q 129 689 129 614 q 217 898 129 818 q 439 978 304 978 q 658 901 581 978 q 743 700 735 824 l 585 700 q 436 861 565 861 q 331 817 368 861 q 294 710 294 772 q 343 519 294 629 l 635 519 l 635 431 l 378 431 q 399 311 399 372 q 282 122 399 186 l 749 122 z "},"¤":{"ha":835,"x_min":132,"x_max":704,"o":"m 667 418 q 622 276 667 340 l 704 196 l 642 133 l 561 214 q 417 168 496 168 q 274 213 338 168 l 194 133 l 132 196 l 211 275 q 167 418 167 339 q 211 563 167 496 l 132 642 l 194 704 l 275 624 q 417 668 339 668 q 560 624 496 668 l 642 704 l 704 642 l 622 561 q 667 418 667 497 m 417 261 q 524 306 482 261 q 567 418 567 350 q 524 531 567 486 q 417 575 482 575 q 310 531 353 575 q 268 418 268 486 q 310 306 268 350 q 417 261 353 261 z "},"¥":{"ha":835,"x_min":32,"x_max":801,"o":"m 550 504 l 714 504 l 714 413 l 499 413 l 493 401 l 493 326 l 714 326 l 714 235 l 493 235 l 493 0 l 342 0 l 342 235 l 121 235 l 121 326 l 342 326 l 342 399 l 335 413 l 121 413 l 121 504 l 283 504 l 32 958 l 207 958 l 422 510 l 633 958 l 801 958 l 550 504 z "},"¦":{"ha":364,"x_min":135,"x_max":229,"o":"m 229 486 l 135 486 l 135 958 l 229 958 l 229 486 m 229 -222 l 135 -222 l 135 250 l 229 250 l 229 -222 z "},"§":{"ha":803,"x_min":42,"x_max":764,"o":"m 764 338 q 632 136 764 203 q 682 -11 682 75 q 599 -181 682 -121 q 393 -242 515 -242 q 182 -181 264 -242 q 86 3 100 -119 l 240 3 q 400 -135 274 -135 q 490 -106 456 -135 q 524 -24 524 -76 q 478 75 524 35 q 314 146 433 115 q 42 410 42 217 q 175 617 42 554 q 131 744 131 672 q 206 915 131 851 q 399 978 281 978 q 596 915 524 978 q 679 743 668 851 l 525 743 q 481 838 514 804 q 396 871 447 871 q 319 842 349 871 q 289 764 289 814 q 331 670 289 707 q 472 607 374 633 q 694 502 625 565 q 764 338 764 439 m 200 415 q 381 264 200 311 q 522 214 461 243 q 583 256 561 226 q 606 322 606 285 q 561 416 606 379 q 413 485 517 453 q 285 533 335 508 q 200 415 200 517 z "},"¨":{"ha":417,"x_min":24,"x_max":393,"o":"m 97 951 q 151 930 129 951 q 172 878 172 908 q 151 826 172 847 q 97 806 129 806 q 44 826 65 806 q 24 878 24 847 q 45 930 24 908 q 97 951 67 951 m 267 930 q 278 941 267 930 q 319 951 289 951 q 372 930 350 951 q 393 878 393 908 q 372 826 393 847 q 319 806 351 806 q 267 826 288 806 q 246 878 246 847 q 267 930 246 908 z "},"©":{"ha":1172,"x_min":43,"x_max":1129,"o":"m 199 883 q 276 961 199 883 q 586 1039 354 1039 q 974 883 818 1039 q 1129 493 1129 726 q 974 103 1129 260 q 586 -53 818 -53 q 199 103 354 -53 q 43 493 43 260 q 199 883 43 726 m 586 944 q 272 815 397 944 q 146 493 146 686 q 272 171 146 300 q 586 42 397 42 q 900 171 774 42 q 1026 493 1026 300 q 900 815 1026 686 q 586 944 774 944 m 596 813 q 784 749 711 813 q 875 579 857 686 l 728 579 q 593 707 708 707 q 483 650 521 707 q 444 494 444 593 q 485 337 444 394 q 594 279 525 279 q 684 314 649 279 q 726 406 719 349 l 874 406 q 778 235 850 297 q 583 174 707 174 q 372 260 453 174 q 290 492 290 347 q 374 726 290 639 q 596 813 457 813 z "},"«":{"ha":822,"x_min":176,"x_max":747,"o":"m 488 575 l 297 344 l 488 114 l 367 114 l 176 344 l 367 575 l 488 575 m 747 575 l 557 344 l 747 114 l 626 114 l 436 344 l 626 575 l 747 575 z "},"¬":{"ha":835,"x_min":146,"x_max":674,"o":"m 674 279 l 578 279 l 578 447 l 146 447 l 146 539 l 674 539 l 674 279 z "},"®":{"ha":699,"x_min":57,"x_max":640,"o":"m 349 1061 q 559 979 478 1061 q 640 769 640 897 q 559 560 640 642 q 349 478 478 478 q 139 560 221 478 q 57 769 57 642 q 139 979 57 897 q 349 1061 221 1061 m 190 608 q 220 577 190 608 q 349 546 251 546 q 508 608 446 546 q 569 769 569 671 q 508 931 569 868 q 349 994 446 994 q 190 931 251 994 q 128 769 128 868 q 190 608 128 671 m 417 769 q 458 707 454 760 q 476 632 464 660 l 394 632 q 385 693 389 653 q 344 726 381 726 l 315 726 l 315 632 l 243 632 l 243 918 l 343 918 q 381 917 368 918 q 474 839 474 907 q 417 769 474 786 m 367 788 q 394 824 394 793 q 367 858 394 851 q 340 860 358 860 l 315 860 l 315 786 l 340 786 q 367 788 358 786 z "},"¯":{"ha":417,"x_min":32,"x_max":386,"o":"m 386 833 l 32 833 l 32 921 l 386 921 l 386 833 z "},"°":{"ha":422,"x_min":36,"x_max":386,"o":"m 85 931 q 109 954 85 931 q 211 978 133 978 q 338 931 289 978 q 386 807 386 883 q 338 683 386 731 q 211 636 289 636 q 85 683 133 636 q 36 807 36 731 q 85 931 36 883 m 267 866 q 256 877 267 866 q 211 889 244 889 q 156 866 178 889 q 133 807 133 843 q 156 748 133 771 q 211 725 178 725 q 267 748 244 725 q 289 807 289 771 q 267 866 289 843 z "},"±":{"ha":835,"x_min":129,"x_max":706,"o":"m 465 489 l 706 489 l 706 397 l 465 397 l 465 160 l 369 160 l 369 397 l 129 397 l 129 489 l 369 489 l 369 721 l 465 721 l 465 489 m 706 0 l 129 0 l 129 89 l 706 89 l 706 0 z "},"´":{"ha":417,"x_min":154,"x_max":389,"o":"m 246 803 l 154 803 l 250 961 l 389 961 l 246 803 z "},"¶":{"ha":804,"x_min":60,"x_max":704,"o":"m 704 958 l 704 -153 l 610 -153 l 610 867 l 474 867 l 474 -153 l 379 -153 l 379 444 l 356 444 q 278 446 301 444 q 117 524 175 451 q 60 701 60 597 q 117 878 60 806 q 278 957 175 951 q 356 958 301 958 l 704 958 z "},"·":{"ha":308,"x_min":47,"x_max":261,"o":"m 78 500 q 93 515 78 500 q 154 531 108 531 q 231 500 200 531 q 261 424 261 469 q 231 347 261 378 q 154 317 200 317 q 78 347 108 317 q 47 424 47 378 q 78 500 47 469 z "},"¸":{"ha":417,"x_min":82,"x_max":340,"o":"m 260 13 l 224 -57 q 340 -169 340 -72 q 290 -260 340 -229 q 154 -292 239 -292 q 82 -281 110 -292 l 82 -210 q 157 -224 114 -224 q 243 -169 243 -224 q 110 -112 243 -103 l 175 13 l 260 13 z "},"»":{"ha":811,"x_min":75,"x_max":646,"o":"m 386 344 l 196 114 l 75 114 l 265 344 l 75 575 l 196 575 l 386 344 m 646 344 l 456 114 l 335 114 l 525 344 l 335 575 l 456 575 l 646 344 z "},"¿":{"ha":706,"x_min":86,"x_max":714,"o":"m 480 589 q 466 575 480 589 q 410 561 453 561 q 339 589 367 561 q 311 660 311 617 q 339 730 311 703 q 410 757 367 757 q 480 730 453 757 q 507 660 507 703 q 480 589 507 617 m 388 -240 q 166 -169 246 -240 q 86 18 86 -99 q 232 293 86 156 q 315 389 293 351 q 340 478 336 426 l 481 478 q 453 364 475 411 q 375 254 431 317 q 278 126 304 175 q 251 22 251 78 q 289 -85 251 -46 q 394 -124 326 -124 q 510 -77 467 -124 q 558 58 553 -31 l 714 58 q 621 -160 710 -79 q 388 -240 532 -240 z "},"À":{"ha":911,"x_min":32,"x_max":908,"o":"m 438 1022 l 303 1164 l 442 1164 l 529 1022 l 438 1022 m 639 317 l 299 317 l 194 0 l 32 0 l 376 958 l 574 958 l 908 0 l 743 0 l 639 317 m 339 438 l 599 438 l 472 832 l 339 438 z "},"Á":{"ha":911,"x_min":32,"x_max":908,"o":"m 514 1022 l 422 1022 l 510 1164 l 649 1164 l 514 1022 m 639 317 l 299 317 l 194 0 l 32 0 l 376 958 l 574 958 l 908 0 l 743 0 l 639 317 m 339 438 l 599 438 l 472 832 l 339 438 z "},"Â":{"ha":911,"x_min":32,"x_max":908,"o":"m 432 1022 l 328 1022 l 419 1164 l 532 1164 l 624 1022 l 518 1022 l 475 1106 l 432 1022 m 639 317 l 299 317 l 194 0 l 32 0 l 376 958 l 574 958 l 908 0 l 743 0 l 639 317 m 339 438 l 599 438 l 472 832 l 339 438 z "},"Ã":{"ha":911,"x_min":32,"x_max":908,"o":"m 403 1071 q 381 1039 381 1071 l 308 1039 q 329 1132 308 1104 q 393 1160 350 1160 q 486 1139 431 1160 q 547 1122 536 1122 q 569 1154 569 1122 l 643 1154 q 622 1061 643 1089 q 557 1033 600 1033 q 464 1054 521 1033 q 403 1071 414 1071 m 639 317 l 299 317 l 194 0 l 32 0 l 376 958 l 574 958 l 908 0 l 743 0 l 639 317 m 339 438 l 599 438 l 472 832 l 339 438 z "},"Ä":{"ha":911,"x_min":32,"x_max":908,"o":"m 421 1040 q 410 1029 421 1040 q 368 1018 400 1018 q 315 1040 336 1018 q 293 1092 293 1061 q 315 1144 293 1122 q 368 1165 336 1165 q 421 1144 400 1165 q 442 1092 442 1122 q 421 1040 442 1061 m 583 1018 q 530 1040 551 1018 q 508 1092 508 1061 q 530 1144 508 1122 q 583 1165 551 1165 q 635 1144 614 1165 q 657 1092 657 1122 q 635 1040 657 1061 q 583 1018 614 1018 m 639 317 l 299 317 l 194 0 l 32 0 l 376 958 l 574 958 l 908 0 l 743 0 l 639 317 m 339 438 l 599 438 l 472 832 l 339 438 z "},"Å":{"ha":911,"x_min":32,"x_max":908,"o":"m 573 1031 q 554 1014 573 1031 q 475 997 535 997 q 377 1031 415 997 q 339 1115 339 1064 q 377 1201 339 1168 q 475 1235 415 1235 q 573 1201 535 1235 q 611 1115 611 1168 q 573 1031 611 1064 m 515 1158 q 507 1166 515 1158 q 475 1174 499 1174 q 435 1158 451 1174 q 419 1115 419 1142 q 435 1074 419 1090 q 475 1057 451 1057 q 515 1074 499 1057 q 531 1115 531 1090 q 515 1158 531 1142 m 639 317 l 299 317 l 194 0 l 32 0 l 376 958 l 574 958 l 908 0 l 743 0 l 639 317 m 339 438 l 599 438 l 472 832 l 339 438 z "},"Æ":{"ha":1292,"x_min":-51,"x_max":1253,"o":"m 1253 122 l 1253 0 l 626 0 l 603 326 l 289 326 l 113 0 l -51 0 l 489 958 l 1239 958 l 1239 838 l 718 838 l 740 540 l 1200 540 l 1200 419 l 749 419 l 771 122 l 1253 122 m 594 449 l 565 836 l 356 449 l 594 449 z "},"Ç":{"ha":983,"x_min":68,"x_max":928,"o":"m 769 325 l 921 325 l 919 311 q 802 77 904 168 q 526 -19 700 -14 l 507 -57 q 624 -169 624 -72 q 573 -260 624 -229 q 438 -292 522 -292 q 365 -281 393 -292 l 365 -210 q 440 -224 397 -224 q 526 -169 526 -224 q 393 -112 526 -103 l 444 -15 q 169 140 269 7 q 68 475 68 272 q 196 839 68 700 q 526 978 324 978 q 809 888 707 978 q 926 650 911 799 l 928 636 l 776 636 l 774 650 q 524 861 731 861 q 313 757 392 861 q 233 482 233 653 q 311 201 233 306 q 517 97 389 97 q 683 153 621 97 q 767 311 746 210 l 769 325 z "},"È":{"ha":833,"x_min":132,"x_max":794,"o":"m 431 1022 l 296 1164 l 435 1164 l 522 1022 l 431 1022 m 794 122 l 794 0 l 132 0 l 132 958 l 781 958 l 781 838 l 285 838 l 285 540 l 742 540 l 742 419 l 285 419 l 285 122 l 794 122 z "},"É":{"ha":833,"x_min":132,"x_max":794,"o":"m 507 1022 l 415 1022 l 503 1164 l 642 1164 l 507 1022 m 794 122 l 794 0 l 132 0 l 132 958 l 781 958 l 781 838 l 285 838 l 285 540 l 742 540 l 742 419 l 285 419 l 285 122 l 794 122 z "},"Ê":{"ha":833,"x_min":132,"x_max":794,"o":"m 425 1022 l 321 1022 l 413 1164 l 525 1164 l 617 1022 l 511 1022 l 468 1106 l 425 1022 m 794 122 l 794 0 l 132 0 l 132 958 l 781 958 l 781 838 l 285 838 l 285 540 l 742 540 l 742 419 l 285 419 l 285 122 l 794 122 z "},"Ë":{"ha":833,"x_min":132,"x_max":794,"o":"m 361 1018 q 308 1040 329 1018 q 286 1092 286 1061 q 308 1144 286 1122 q 361 1165 329 1165 q 413 1144 392 1165 q 435 1092 435 1122 q 413 1040 435 1061 q 361 1018 392 1018 m 629 1040 q 619 1029 629 1040 q 576 1018 608 1018 q 523 1040 544 1018 q 501 1092 501 1061 q 523 1144 501 1122 q 576 1165 544 1165 q 629 1144 608 1165 q 650 1092 650 1122 q 629 1040 650 1061 m 794 122 l 794 0 l 132 0 l 132 958 l 781 958 l 781 838 l 285 838 l 285 540 l 742 540 l 742 419 l 285 419 l 285 122 l 794 122 z "},"Ì":{"ha":385,"x_min":36,"x_max":285,"o":"m 263 1022 l 171 1022 l 36 1164 l 175 1164 l 263 1022 m 285 0 l 132 0 l 132 958 l 285 958 l 285 0 z "},"Í":{"ha":385,"x_min":132,"x_max":382,"o":"m 247 1022 l 156 1022 l 243 1164 l 382 1164 l 247 1022 m 285 0 l 132 0 l 132 958 l 285 958 l 285 0 z "},"Î":{"ha":385,"x_min":61,"x_max":357,"o":"m 165 1022 l 61 1022 l 153 1164 l 265 1164 l 357 1022 l 251 1022 l 208 1106 l 165 1022 m 132 958 l 285 958 l 285 0 l 132 0 l 132 958 z "},"Ï":{"ha":385,"x_min":26,"x_max":390,"o":"m 48 1144 q 59 1155 48 1144 q 101 1165 69 1165 q 154 1144 133 1165 q 175 1092 175 1122 q 154 1040 175 1061 q 101 1018 133 1018 q 48 1040 69 1018 q 26 1092 26 1061 q 48 1144 26 1122 m 317 1165 q 369 1144 347 1165 q 390 1092 390 1122 q 369 1040 390 1061 q 317 1018 347 1018 q 263 1040 285 1018 q 242 1092 242 1061 q 263 1144 242 1122 q 317 1165 285 1165 m 285 0 l 132 0 l 132 958 l 285 958 l 285 0 z "},"Ð":{"ha":994,"x_min":46,"x_max":944,"o":"m 558 953 q 839 815 733 932 q 944 490 944 699 q 836 155 944 282 q 554 6 728 28 q 432 0 506 0 l 128 0 l 128 419 l 46 419 l 46 511 l 128 511 l 128 958 l 436 958 q 558 953 510 958 m 528 128 q 713 239 644 144 q 782 490 782 333 q 716 726 782 639 q 533 831 650 814 q 422 838 493 838 l 279 838 l 279 511 l 457 511 l 457 419 l 279 419 l 279 122 l 418 122 q 528 128 497 122 z "},"Ñ":{"ha":1024,"x_min":132,"x_max":924,"o":"m 444 1160 q 538 1139 482 1160 q 599 1122 588 1122 q 621 1154 621 1122 l 694 1154 q 673 1061 694 1089 q 608 1033 651 1033 q 515 1054 572 1033 q 454 1071 465 1071 q 432 1039 432 1071 l 360 1039 q 381 1132 360 1104 q 444 1160 401 1160 m 924 0 l 704 0 l 279 790 q 285 458 285 644 l 285 0 l 132 0 l 132 958 l 347 958 l 776 163 q 772 497 772 325 l 772 958 l 922 958 l 924 0 z "},"Ò":{"ha":1042,"x_min":68,"x_max":992,"o":"m 493 1022 l 358 1164 l 497 1164 l 585 1022 l 493 1022 m 531 978 q 869 842 747 978 q 992 479 992 706 q 869 117 992 253 q 531 -19 747 -19 q 191 117 314 -19 q 68 479 68 253 q 190 842 68 706 q 531 978 313 978 m 531 97 q 749 199 669 97 q 828 479 828 301 q 749 760 828 658 q 531 861 669 861 q 311 760 390 861 q 232 479 232 658 q 311 199 232 300 q 531 97 390 97 z "},"Ó":{"ha":1042,"x_min":68,"x_max":992,"o":"m 569 1022 l 478 1022 l 565 1164 l 704 1164 l 569 1022 m 531 978 q 869 842 747 978 q 992 479 992 706 q 869 117 992 253 q 531 -19 747 -19 q 191 117 314 -19 q 68 479 68 253 q 190 842 68 706 q 531 978 313 978 m 531 97 q 749 199 669 97 q 828 479 828 301 q 749 760 828 658 q 531 861 669 861 q 311 760 390 861 q 232 479 232 658 q 311 199 232 300 q 531 97 390 97 z "},"Ô":{"ha":1042,"x_min":68,"x_max":992,"o":"m 488 1022 l 383 1022 l 475 1164 l 588 1164 l 679 1022 l 574 1022 l 531 1106 l 488 1022 m 531 978 q 869 842 747 978 q 992 479 992 706 q 869 117 992 253 q 531 -19 747 -19 q 191 117 314 -19 q 68 479 68 253 q 190 842 68 706 q 531 978 313 978 m 531 97 q 749 199 669 97 q 828 479 828 301 q 749 760 828 658 q 531 861 669 861 q 311 760 390 861 q 232 479 232 658 q 311 199 232 300 q 531 97 390 97 z "},"Õ":{"ha":1042,"x_min":68,"x_max":992,"o":"m 458 1071 q 436 1039 436 1071 l 364 1039 q 385 1132 364 1104 q 449 1160 406 1160 q 542 1139 486 1160 q 603 1122 592 1122 q 625 1154 625 1122 l 699 1154 q 677 1061 699 1089 q 613 1033 656 1033 q 519 1054 576 1033 q 458 1071 469 1071 m 531 978 q 869 842 747 978 q 992 479 992 706 q 869 117 992 253 q 531 -19 747 -19 q 191 117 314 -19 q 68 479 68 253 q 190 842 68 706 q 531 978 313 978 m 531 97 q 749 199 669 97 q 828 479 828 301 q 749 760 828 658 q 531 861 669 861 q 311 760 390 861 q 232 479 232 658 q 311 199 232 300 q 531 97 390 97 z "},"Ö":{"ha":1042,"x_min":68,"x_max":992,"o":"m 476 1040 q 466 1029 476 1040 q 424 1018 456 1018 q 370 1040 392 1018 q 349 1092 349 1061 q 370 1144 349 1122 q 424 1165 392 1165 q 476 1144 456 1165 q 497 1092 497 1122 q 476 1040 497 1061 m 639 1018 q 585 1040 607 1018 q 564 1092 564 1061 q 585 1144 564 1122 q 639 1165 607 1165 q 691 1144 669 1165 q 713 1092 713 1122 q 691 1040 713 1061 q 639 1018 669 1018 m 531 978 q 869 842 747 978 q 992 479 992 706 q 869 117 992 253 q 531 -19 747 -19 q 191 117 314 -19 q 68 479 68 253 q 190 842 68 706 q 531 978 313 978 m 531 97 q 749 199 669 97 q 828 479 828 301 q 749 760 828 658 q 531 861 669 861 q 311 760 390 861 q 232 479 232 658 q 311 199 232 300 q 531 97 390 97 z "},"×":{"ha":835,"x_min":153,"x_max":682,"o":"m 485 442 l 682 244 l 614 178 l 417 375 l 219 178 l 153 244 l 350 442 l 153 639 l 219 706 l 417 508 l 614 706 l 682 639 l 485 442 z "},"Ø":{"ha":1050,"x_min":63,"x_max":1007,"o":"m 1007 885 l 914 792 q 997 479 997 664 q 874 117 997 254 q 535 -19 751 -19 q 217 94 339 -19 l 129 7 l 63 74 l 156 167 q 72 479 72 294 q 195 842 72 706 q 535 978 318 978 q 853 864 731 978 l 940 951 l 1007 885 m 236 479 q 269 281 236 364 l 751 763 q 535 861 672 861 q 315 760 394 861 q 236 479 236 658 m 833 479 q 800 678 833 594 l 318 196 q 535 97 397 97 q 754 199 675 97 q 833 479 833 300 z "},"Ù":{"ha":960,"x_min":122,"x_max":874,"o":"m 551 1022 l 460 1022 l 325 1164 l 464 1164 l 551 1022 m 874 958 l 874 371 q 871 272 874 308 q 767 62 860 143 q 497 -19 675 -19 q 227 62 319 -19 q 125 272 135 143 q 122 371 122 308 l 122 958 l 274 958 l 274 368 q 276 290 274 313 q 340 149 283 201 q 497 97 397 97 q 656 149 599 97 q 719 290 713 201 q 722 368 722 313 l 722 958 l 874 958 z "},"Ú":{"ha":960,"x_min":122,"x_max":874,"o":"m 536 1022 l 444 1022 l 532 1164 l 671 1164 l 536 1022 m 874 958 l 874 371 q 871 272 874 308 q 767 62 860 143 q 497 -19 675 -19 q 227 62 319 -19 q 125 272 135 143 q 122 371 122 308 l 122 958 l 274 958 l 274 368 q 276 290 274 313 q 340 149 283 201 q 497 97 397 97 q 656 149 599 97 q 719 290 713 201 q 722 368 722 313 l 722 958 l 874 958 z "},"Û":{"ha":960,"x_min":122,"x_max":874,"o":"m 454 1022 l 350 1022 l 442 1164 l 554 1164 l 646 1022 l 540 1022 l 497 1106 l 454 1022 m 874 958 l 874 371 q 871 272 874 308 q 767 62 860 143 q 497 -19 675 -19 q 227 62 319 -19 q 125 272 135 143 q 122 371 122 308 l 122 958 l 274 958 l 274 368 q 276 290 274 313 q 340 149 283 201 q 497 97 397 97 q 656 149 599 97 q 719 290 713 201 q 722 368 722 313 l 722 958 l 874 958 z "},"Ü":{"ha":960,"x_min":122,"x_max":874,"o":"m 337 1144 q 348 1155 337 1144 q 390 1165 358 1165 q 443 1144 422 1165 q 464 1092 464 1122 q 443 1040 464 1061 q 390 1018 422 1018 q 337 1040 358 1018 q 315 1092 315 1061 q 337 1144 315 1122 m 606 1165 q 658 1144 636 1165 q 679 1092 679 1122 q 658 1040 679 1061 q 606 1018 636 1018 q 552 1040 574 1018 q 531 1092 531 1061 q 552 1144 531 1122 q 606 1165 574 1165 m 874 958 l 874 371 q 871 272 874 308 q 767 62 860 143 q 497 -19 675 -19 q 227 62 319 -19 q 125 272 135 143 q 122 371 122 308 l 122 958 l 274 958 l 274 368 q 276 290 274 313 q 340 149 283 201 q 497 97 397 97 q 656 149 599 97 q 719 290 713 201 q 722 368 722 313 l 722 958 l 874 958 z "},"Ý":{"ha":836,"x_min":25,"x_max":854,"o":"m 478 1022 l 386 1022 l 474 1164 l 613 1164 l 478 1022 m 515 375 l 515 0 l 364 0 l 364 375 l 25 958 l 199 958 l 446 515 l 685 958 l 854 958 l 515 375 z "},"Þ":{"ha":883,"x_min":132,"x_max":829,"o":"m 585 831 q 762 747 694 817 q 829 560 829 678 q 762 371 829 442 q 585 286 694 300 q 454 281 540 281 l 285 281 l 285 0 l 132 0 l 132 958 l 285 958 l 285 836 l 454 836 q 585 831 540 836 m 544 410 q 668 558 668 433 q 544 707 668 683 q 447 713 511 713 l 285 713 l 285 404 l 447 404 q 544 410 511 404 z "},"ß":{"ha":865,"x_min":96,"x_max":814,"o":"m 435 1047 q 671 979 585 1047 q 757 797 757 911 q 715 661 757 725 q 617 553 617 608 q 635 492 617 519 q 700 424 654 464 q 788 322 763 369 q 814 201 814 275 q 738 50 814 106 q 549 -6 661 -6 q 399 8 467 -6 l 399 128 q 529 110 471 110 q 649 217 649 110 q 567 357 649 283 q 476 456 501 417 q 451 553 451 496 q 568 714 451 653 q 592 796 592 751 q 551 895 592 860 q 429 931 510 931 q 305 884 353 931 q 251 750 257 838 q 249 661 249 711 l 249 0 l 96 0 l 96 650 q 99 753 96 703 q 199 972 107 896 q 435 1047 292 1047 z "},"à":{"ha":757,"x_min":49,"x_max":672,"o":"m 342 803 l 200 961 l 339 961 l 433 803 l 342 803 m 521 0 l 507 107 l 469 28 q 286 -19 401 -19 q 116 37 183 -19 q 49 193 49 93 q 458 446 49 446 l 506 446 l 506 464 q 503 544 506 517 q 374 646 496 646 q 231 504 243 646 l 78 504 q 167 690 85 624 q 376 757 249 757 q 654 551 633 757 q 658 447 658 506 l 658 188 q 672 0 658 103 l 521 0 m 342 92 q 460 140 415 92 q 506 276 506 189 l 506 344 q 288 322 367 356 q 210 206 210 288 q 342 92 210 92 z "},"á":{"ha":757,"x_min":49,"x_max":672,"o":"m 414 803 l 322 803 l 418 961 l 557 961 l 414 803 m 521 0 l 507 107 l 469 28 q 286 -19 401 -19 q 116 37 183 -19 q 49 193 49 93 q 458 446 49 446 l 506 446 l 506 464 q 503 544 506 517 q 374 646 496 646 q 231 504 243 646 l 78 504 q 167 690 85 624 q 376 757 249 757 q 654 551 633 757 q 658 447 658 506 l 658 188 q 672 0 658 103 l 521 0 m 342 92 q 460 140 415 92 q 506 276 506 189 l 506 344 q 288 322 367 356 q 210 206 210 288 q 342 92 210 92 z "},"â":{"ha":757,"x_min":49,"x_max":672,"o":"m 331 803 l 229 803 l 321 961 l 433 961 l 525 803 l 422 803 l 376 893 l 331 803 m 521 0 l 507 107 l 469 28 q 286 -19 401 -19 q 116 37 183 -19 q 49 193 49 93 q 458 446 49 446 l 506 446 l 506 464 q 503 544 506 517 q 374 646 496 646 q 231 504 243 646 l 78 504 q 167 690 85 624 q 376 757 249 757 q 654 551 633 757 q 658 447 658 506 l 658 188 q 672 0 658 103 l 521 0 m 342 92 q 460 140 415 92 q 506 276 506 189 l 506 344 q 288 322 367 356 q 210 206 210 288 q 342 92 210 92 z "},"ã":{"ha":757,"x_min":49,"x_max":672,"o":"m 304 856 q 282 825 282 856 l 210 825 q 231 917 210 890 q 294 944 251 944 q 388 925 336 944 q 449 908 432 908 q 471 940 471 908 l 544 940 q 523 847 544 874 q 458 819 501 819 q 365 839 424 819 q 304 856 321 856 m 521 0 l 507 107 l 469 28 q 286 -19 401 -19 q 116 37 183 -19 q 49 193 49 93 q 458 446 49 446 l 506 446 l 506 464 q 503 544 506 517 q 374 646 496 646 q 231 504 243 646 l 78 504 q 167 690 85 624 q 376 757 249 757 q 654 551 633 757 q 658 447 658 506 l 658 188 q 672 0 658 103 l 521 0 m 342 92 q 460 140 415 92 q 506 276 506 189 l 506 344 q 288 322 367 356 q 210 206 210 288 q 342 92 210 92 z "},"ä":{"ha":757,"x_min":49,"x_max":672,"o":"m 319 826 q 308 816 319 826 q 265 806 297 806 q 213 826 233 806 q 192 878 192 847 q 213 930 192 908 q 265 951 233 951 q 319 930 297 951 q 340 878 340 908 q 319 826 340 847 m 540 826 q 530 816 540 826 q 488 806 519 806 q 435 826 456 806 q 414 878 414 847 q 435 930 414 908 q 488 951 456 951 q 540 930 519 951 q 561 878 561 908 q 540 826 561 847 m 521 0 l 507 107 l 469 28 q 286 -19 401 -19 q 116 37 183 -19 q 49 193 49 93 q 458 446 49 446 l 506 446 l 506 464 q 503 544 506 517 q 374 646 496 646 q 231 504 243 646 l 78 504 q 167 690 85 624 q 376 757 249 757 q 654 551 633 757 q 658 447 658 506 l 658 188 q 672 0 658 103 l 521 0 m 342 92 q 460 140 415 92 q 506 276 506 189 l 506 344 q 288 322 367 356 q 210 206 210 288 q 342 92 210 92 z "},"å":{"ha":757,"x_min":49,"x_max":672,"o":"m 474 821 q 455 803 474 821 q 376 786 436 786 q 278 821 317 786 q 240 910 240 856 q 278 1000 240 965 q 376 1035 317 1035 q 474 1000 436 1035 q 513 910 513 965 q 474 821 513 856 m 417 957 q 409 966 417 957 q 376 975 401 975 q 336 957 351 975 q 321 910 321 939 q 336 863 321 881 q 376 846 351 846 q 417 863 401 846 q 432 910 432 881 q 417 957 432 939 m 521 0 l 507 107 l 469 28 q 286 -19 401 -19 q 116 37 183 -19 q 49 193 49 93 q 458 446 49 446 l 506 446 l 506 464 q 503 544 506 517 q 374 646 496 646 q 231 504 243 646 l 78 504 q 167 690 85 624 q 376 757 249 757 q 654 551 633 757 q 658 447 658 506 l 658 188 q 672 0 658 103 l 521 0 m 342 92 q 460 140 415 92 q 506 276 506 189 l 506 344 q 288 322 367 356 q 210 206 210 288 q 342 92 210 92 z "},"æ":{"ha":1264,"x_min":49,"x_max":1214,"o":"m 1214 388 q 1210 326 1214 367 l 683 326 q 743 149 692 207 q 874 92 794 92 q 989 131 942 92 q 1047 239 1036 169 l 1203 239 q 1088 47 1179 113 q 869 -19 996 -19 q 585 143 667 -19 l 533 57 q 307 -19 442 -19 q 122 37 194 -19 q 49 194 49 93 q 153 376 49 318 q 469 433 258 433 l 525 433 l 525 464 q 378 646 525 646 q 231 504 238 646 l 78 504 q 161 690 81 624 q 376 757 242 757 q 626 625 571 757 q 888 757 715 757 q 1127 653 1040 757 q 1214 388 1214 549 m 685 433 l 1057 433 q 879 646 1038 646 q 748 592 799 646 q 685 433 697 538 m 525 292 l 525 326 q 287 308 364 333 q 210 207 210 282 q 346 92 210 92 q 474 147 424 92 q 525 292 525 201 z "},"ç":{"ha":756,"x_min":40,"x_max":719,"o":"m 388 92 q 499 131 454 92 q 560 244 543 169 l 715 244 q 610 56 690 122 q 407 -18 529 -11 l 388 -57 q 504 -169 504 -72 q 453 -260 504 -229 q 318 -292 403 -292 q 246 -281 274 -292 l 246 -210 q 321 -224 278 -224 q 407 -169 407 -224 q 274 -112 407 -103 l 324 -15 q 117 97 194 1 q 40 365 40 193 q 143 652 40 547 q 397 757 246 757 q 620 681 535 757 q 719 482 706 606 l 565 482 q 393 646 533 646 q 255 577 308 646 q 201 376 201 508 q 253 163 201 233 q 388 92 306 92 z "},"è":{"ha":781,"x_min":40,"x_max":731,"o":"m 358 803 l 217 961 l 356 961 l 450 803 l 358 803 m 731 388 q 728 326 731 353 l 199 326 q 392 92 215 92 q 507 131 460 92 q 565 239 554 169 l 719 239 q 604 47 696 113 q 386 -19 513 -19 q 136 79 232 -19 q 40 367 40 178 q 141 649 40 542 q 401 757 242 757 q 644 653 557 757 q 731 388 731 550 m 396 646 q 264 592 315 646 q 200 433 213 538 l 574 433 q 520 591 565 536 q 396 646 475 646 z "},"é":{"ha":781,"x_min":40,"x_max":731,"o":"m 431 803 l 339 803 l 435 961 l 574 961 l 431 803 m 731 388 q 728 326 731 353 l 199 326 q 392 92 215 92 q 507 131 460 92 q 565 239 554 169 l 719 239 q 604 47 696 113 q 386 -19 513 -19 q 136 79 232 -19 q 40 367 40 178 q 141 649 40 542 q 401 757 242 757 q 644 653 557 757 q 731 388 731 550 m 396 646 q 264 592 315 646 q 200 433 213 538 l 574 433 q 520 591 565 536 q 396 646 475 646 z "},"ê":{"ha":781,"x_min":40,"x_max":731,"o":"m 347 803 l 246 803 l 338 961 l 450 961 l 542 803 l 439 803 l 393 893 l 347 803 m 731 388 q 728 326 731 353 l 199 326 q 392 92 215 92 q 507 131 460 92 q 565 239 554 169 l 719 239 q 604 47 696 113 q 386 -19 513 -19 q 136 79 232 -19 q 40 367 40 178 q 141 649 40 542 q 401 757 242 757 q 644 653 557 757 q 731 388 731 550 m 396 646 q 264 592 315 646 q 200 433 213 538 l 574 433 q 520 591 565 536 q 396 646 475 646 z "},"ë":{"ha":781,"x_min":40,"x_max":731,"o":"m 335 826 q 325 816 335 826 q 282 806 314 806 q 229 826 250 806 q 208 878 208 847 q 229 930 208 908 q 282 951 250 951 q 335 930 314 951 q 357 878 357 908 q 335 826 357 847 m 557 826 q 547 816 557 826 q 504 806 536 806 q 451 826 472 806 q 431 878 431 847 q 451 930 431 908 q 504 951 472 951 q 557 930 536 951 q 578 878 578 908 q 557 826 578 847 m 731 388 q 728 326 731 353 l 199 326 q 392 92 215 92 q 507 131 460 92 q 565 239 554 169 l 719 239 q 604 47 696 113 q 386 -19 513 -19 q 136 79 232 -19 q 40 367 40 178 q 141 649 40 542 q 401 757 242 757 q 644 653 557 757 q 731 388 731 550 m 396 646 q 264 592 315 646 q 200 433 213 538 l 574 433 q 520 591 565 536 q 396 646 475 646 z "},"ì":{"ha":349,"x_min":-4,"x_max":249,"o":"m 229 803 l 138 803 l -4 961 l 135 961 l 229 803 m 249 0 l 96 0 l 96 738 l 249 738 l 249 0 z "},"í":{"ha":349,"x_min":96,"x_max":353,"o":"m 210 803 l 118 803 l 214 961 l 353 961 l 210 803 m 249 0 l 96 0 l 96 738 l 249 738 l 249 0 z "},"î":{"ha":349,"x_min":25,"x_max":321,"o":"m 126 803 l 25 803 l 117 961 l 229 961 l 321 803 l 218 803 l 172 893 l 126 803 m 96 738 l 249 738 l 249 0 l 96 0 l 96 738 z "},"ï":{"ha":349,"x_min":-12,"x_max":357,"o":"m 61 951 q 115 930 93 951 q 136 878 136 908 q 115 826 136 847 q 61 806 93 806 q 8 826 29 806 q -12 878 -12 847 q 9 930 -12 908 q 61 951 31 951 m 231 930 q 242 941 231 930 q 283 951 253 951 q 335 930 314 951 q 357 878 357 908 q 336 826 357 847 q 283 806 315 806 q 231 826 251 806 q 210 878 210 847 q 231 930 210 908 m 249 0 l 96 0 l 96 738 l 249 738 l 249 0 z "},"ð":{"ha":839,"x_min":40,"x_max":775,"o":"m 710 906 l 651 886 q 775 426 775 733 q 668 90 775 199 q 403 -19 561 -19 q 133 85 226 -19 q 40 361 40 190 q 140 649 40 542 q 383 757 240 757 q 538 717 469 757 l 600 635 q 514 839 588 760 l 324 775 l 299 854 l 439 903 q 333 954 394 931 l 443 1035 q 585 951 529 997 l 685 986 l 710 906 m 614 361 l 614 401 q 553 581 614 519 q 408 643 493 643 q 259 568 315 643 q 203 371 203 493 q 256 167 203 239 q 408 96 308 96 q 557 164 500 96 q 614 361 614 232 z "},"ñ":{"ha":842,"x_min":96,"x_max":751,"o":"m 357 856 q 335 825 335 856 l 263 825 q 283 917 263 890 q 347 944 304 944 q 440 925 389 944 q 501 908 485 908 q 524 940 524 908 l 597 940 q 576 847 597 874 q 511 819 554 819 q 418 839 476 819 q 357 856 374 856 m 747 546 q 751 415 751 489 l 751 0 l 599 0 l 599 399 q 596 503 599 465 q 440 644 583 644 q 301 569 354 644 q 249 331 249 493 l 249 0 l 96 0 l 96 738 l 249 738 l 249 615 l 299 700 q 485 757 374 757 q 669 701 601 757 q 747 546 736 644 z "},"ò":{"ha":826,"x_min":40,"x_max":788,"o":"m 379 803 l 238 961 l 376 961 l 471 803 l 379 803 m 138 648 q 186 702 138 648 q 414 757 235 757 q 690 648 593 757 q 788 369 788 539 q 690 90 788 200 q 414 -19 592 -19 q 138 90 235 -19 q 40 369 40 200 q 138 648 40 539 m 414 92 q 569 167 513 92 q 625 369 625 243 q 569 571 625 496 q 414 646 513 646 q 258 571 314 646 q 201 369 201 496 q 258 167 201 243 q 414 92 314 92 z "},"ó":{"ha":826,"x_min":40,"x_max":788,"o":"m 451 803 l 360 803 l 456 961 l 594 961 l 451 803 m 138 648 q 186 702 138 648 q 414 757 235 757 q 690 648 593 757 q 788 369 788 539 q 690 90 788 200 q 414 -19 592 -19 q 138 90 235 -19 q 40 369 40 200 q 138 648 40 539 m 414 92 q 569 167 513 92 q 625 369 625 243 q 569 571 625 496 q 414 646 513 646 q 258 571 314 646 q 201 369 201 496 q 258 167 201 243 q 414 92 314 92 z "},"ô":{"ha":826,"x_min":40,"x_max":788,"o":"m 368 803 l 267 803 l 358 961 l 471 961 l 563 803 l 460 803 l 414 893 l 368 803 m 138 648 q 186 702 138 648 q 414 757 235 757 q 690 648 593 757 q 788 369 788 539 q 690 90 788 200 q 414 -19 592 -19 q 138 90 235 -19 q 40 369 40 200 q 138 648 40 539 m 414 92 q 569 167 513 92 q 625 369 625 243 q 569 571 625 496 q 414 646 513 646 q 258 571 314 646 q 201 369 201 496 q 258 167 201 243 q 414 92 314 92 z "},"õ":{"ha":826,"x_min":40,"x_max":788,"o":"m 342 856 q 319 825 319 856 l 247 825 q 268 917 247 890 q 332 944 289 944 q 425 925 374 944 q 486 908 469 908 q 508 940 508 908 l 582 940 q 560 847 582 874 q 496 819 539 819 q 403 839 461 819 q 342 856 358 856 m 138 648 q 186 702 138 648 q 414 757 235 757 q 690 648 593 757 q 788 369 788 539 q 690 90 788 200 q 414 -19 592 -19 q 138 90 235 -19 q 40 369 40 200 q 138 648 40 539 m 414 92 q 569 167 513 92 q 625 369 625 243 q 569 571 625 496 q 414 646 513 646 q 258 571 314 646 q 201 369 201 496 q 258 167 201 243 q 414 92 314 92 z "},"ö":{"ha":826,"x_min":40,"x_max":788,"o":"m 356 826 q 345 816 356 826 q 303 806 335 806 q 250 826 271 806 q 229 878 229 847 q 251 930 229 908 q 303 951 272 951 q 356 930 335 951 q 378 878 378 908 q 356 826 378 847 m 578 826 q 567 816 578 826 q 525 806 557 806 q 472 826 493 806 q 451 878 451 847 q 473 930 451 908 q 525 951 494 951 q 577 930 556 951 q 599 878 599 908 q 578 826 599 847 m 138 648 q 186 702 138 648 q 414 757 235 757 q 690 648 593 757 q 788 369 788 539 q 690 90 788 200 q 414 -19 592 -19 q 138 90 235 -19 q 40 369 40 200 q 138 648 40 539 m 414 92 q 569 167 513 92 q 625 369 625 243 q 569 571 625 496 q 414 646 513 646 q 258 571 314 646 q 201 369 201 496 q 258 167 201 243 q 414 92 314 92 z "},"÷":{"ha":835,"x_min":114,"x_max":721,"o":"m 358 733 q 371 746 358 733 q 419 758 383 758 q 481 733 456 758 q 506 672 506 708 q 481 611 506 636 q 419 586 456 586 q 358 611 383 586 q 333 672 333 636 q 358 733 333 708 m 721 397 l 114 397 l 114 489 l 721 489 l 721 397 m 358 269 q 371 282 358 269 q 419 294 383 294 q 481 269 456 294 q 506 208 506 244 q 481 147 506 172 q 419 122 456 122 q 358 147 383 122 q 333 208 333 172 q 358 269 333 244 z "},"ø":{"ha":868,"x_min":35,"x_max":833,"o":"m 833 701 l 735 603 q 797 369 797 504 q 700 90 797 200 q 424 -19 603 -19 q 186 54 282 -19 l 101 -31 l 35 36 l 121 122 q 50 369 50 224 q 147 648 50 539 q 424 757 244 757 q 672 674 578 757 l 767 768 l 833 701 m 213 369 q 233 235 213 293 l 575 576 q 424 646 518 646 q 269 571 325 646 q 213 369 213 496 m 636 369 q 619 489 636 435 l 282 150 q 424 92 336 92 q 580 167 524 92 q 636 369 636 243 z "},"ù":{"ha":839,"x_min":85,"x_max":739,"o":"m 376 803 l 235 961 l 374 961 l 468 803 l 376 803 m 739 738 l 739 0 l 588 0 l 588 126 l 536 35 q 350 -19 460 -19 q 173 34 240 -19 q 92 168 106 88 q 85 299 85 215 l 85 738 l 236 738 l 236 329 q 242 228 236 278 q 290 130 250 165 q 400 94 331 94 q 537 166 486 94 q 588 390 588 238 l 588 738 l 739 738 z "},"ú":{"ha":839,"x_min":85,"x_max":739,"o":"m 449 803 l 357 803 l 453 961 l 592 961 l 449 803 m 739 738 l 739 0 l 588 0 l 588 126 l 536 35 q 350 -19 460 -19 q 173 34 240 -19 q 92 168 106 88 q 85 299 85 215 l 85 738 l 236 738 l 236 329 q 242 228 236 278 q 290 130 250 165 q 400 94 331 94 q 537 166 486 94 q 588 390 588 238 l 588 738 l 739 738 z "},"û":{"ha":839,"x_min":85,"x_max":739,"o":"m 365 803 l 264 803 l 356 961 l 468 961 l 560 803 l 457 803 l 411 893 l 365 803 m 739 738 l 739 0 l 588 0 l 588 126 l 536 35 q 350 -19 460 -19 q 173 34 240 -19 q 92 168 106 88 q 85 299 85 215 l 85 738 l 236 738 l 236 329 q 242 228 236 278 q 290 130 250 165 q 400 94 331 94 q 537 166 486 94 q 588 390 588 238 l 588 738 l 739 738 z "},"ü":{"ha":839,"x_min":85,"x_max":739,"o":"m 353 826 q 343 816 353 826 q 300 806 332 806 q 247 826 268 806 q 226 878 226 847 q 248 930 226 908 q 300 951 269 951 q 353 930 332 951 q 375 878 375 908 q 353 826 375 847 m 575 826 q 565 816 575 826 q 522 806 554 806 q 469 826 490 806 q 449 878 449 847 q 470 930 449 908 q 522 951 492 951 q 574 930 553 951 q 596 878 596 908 q 575 826 596 847 m 739 738 l 739 0 l 588 0 l 588 126 l 536 35 q 350 -19 460 -19 q 173 34 240 -19 q 92 168 106 88 q 85 299 85 215 l 85 738 l 236 738 l 236 329 q 242 228 236 278 q 290 130 250 165 q 400 94 331 94 q 537 166 486 94 q 588 390 588 238 l 588 738 l 739 738 z "},"ý":{"ha":746,"x_min":1,"x_max":742,"o":"m 410 803 l 318 803 l 414 961 l 553 961 l 410 803 m 742 738 l 442 -47 q 326 -235 390 -179 q 161 -292 261 -292 q 89 -287 111 -292 l 89 -175 q 138 -176 107 -176 q 228 -150 192 -176 q 288 -61 264 -124 l 299 -35 l 1 738 l 172 738 l 375 114 l 576 738 l 742 738 z "},"þ":{"ha":869,"x_min":96,"x_max":829,"o":"m 497 757 q 740 652 651 757 q 829 382 829 547 q 727 85 829 189 q 472 -19 625 -19 q 297 26 356 -19 l 249 100 l 249 -272 l 96 -272 l 96 1021 l 249 1021 l 249 622 l 304 701 q 497 757 371 757 m 454 92 q 609 163 550 92 q 668 368 668 235 q 613 569 668 492 q 461 646 558 646 q 308 581 368 646 q 249 376 249 515 l 249 339 q 310 153 249 214 q 454 92 371 92 z "},"ÿ":{"ha":746,"x_min":1,"x_max":742,"o":"m 315 826 q 304 816 315 826 q 261 806 293 806 q 208 826 229 806 q 188 878 188 847 q 209 930 188 908 q 261 951 231 951 q 315 930 293 951 q 336 878 336 908 q 315 826 336 847 m 536 826 q 526 816 536 826 q 483 806 515 806 q 431 826 451 806 q 410 878 410 847 q 431 930 410 908 q 483 951 453 951 q 535 930 514 951 q 557 878 557 908 q 536 826 557 847 m 742 738 l 442 -47 q 326 -235 390 -179 q 161 -292 261 -292 q 89 -287 111 -292 l 89 -175 q 138 -176 107 -176 q 228 -150 192 -176 q 288 -61 264 -124 l 299 -35 l 1 738 l 172 738 l 375 114 l 576 738 l 742 738 z "},"Ā":{"ha":911,"x_min":32,"x_max":908,"o":"m 653 1053 l 299 1053 l 299 1140 l 653 1140 l 653 1053 m 639 317 l 299 317 l 194 0 l 32 0 l 376 958 l 574 958 l 908 0 l 743 0 l 639 317 m 339 438 l 599 438 l 472 832 l 339 438 z "},"ā":{"ha":757,"x_min":49,"x_max":672,"o":"m 554 833 l 200 833 l 200 921 l 554 921 l 554 833 m 521 0 l 507 107 l 469 28 q 286 -19 401 -19 q 116 37 183 -19 q 49 193 49 93 q 458 446 49 446 l 506 446 l 506 464 q 503 544 506 517 q 374 646 496 646 q 231 504 243 646 l 78 504 q 167 690 85 624 q 376 757 249 757 q 654 551 633 757 q 658 447 658 506 l 658 188 q 672 0 658 103 l 521 0 m 342 92 q 460 140 415 92 q 506 276 506 189 l 506 344 q 288 322 367 356 q 210 206 210 288 q 342 92 210 92 z "},"Ă":{"ha":911,"x_min":32,"x_max":908,"o":"m 628 1164 q 475 1006 628 1006 q 322 1164 322 1006 l 408 1164 q 475 1092 410 1092 q 542 1164 540 1092 l 628 1164 m 639 317 l 299 317 l 194 0 l 32 0 l 376 958 l 574 958 l 908 0 l 743 0 l 639 317 m 339 438 l 599 438 l 472 832 l 339 438 z "},"ă":{"ha":757,"x_min":49,"x_max":672,"o":"m 529 961 q 376 788 529 788 q 224 961 224 788 l 310 961 q 376 874 311 874 q 443 961 442 874 l 529 961 m 521 0 l 507 107 l 469 28 q 286 -19 401 -19 q 116 37 183 -19 q 49 193 49 93 q 458 446 49 446 l 506 446 l 506 464 q 503 544 506 517 q 374 646 496 646 q 231 504 243 646 l 78 504 q 167 690 85 624 q 376 757 249 757 q 654 551 633 757 q 658 447 658 506 l 658 188 q 672 0 658 103 l 521 0 m 342 92 q 460 140 415 92 q 506 276 506 189 l 506 344 q 288 322 367 356 q 210 206 210 288 q 342 92 210 92 z "},"Ą":{"ha":911,"x_min":32,"x_max":908,"o":"m 735 -149 q 796 -218 735 -218 q 869 -190 833 -218 l 869 -267 q 729 -310 814 -310 q 593 -192 593 -310 q 635 -68 593 -122 q 739 14 676 -14 l 639 317 l 299 317 l 194 0 l 32 0 l 376 958 l 574 958 l 908 0 l 849 0 q 768 -49 801 -7 q 735 -149 735 -90 m 339 438 l 599 438 l 472 832 l 339 438 z "},"ą":{"ha":757,"x_min":49,"x_max":672,"o":"m 515 -149 q 576 -218 515 -218 q 650 -190 614 -218 l 650 -267 q 510 -310 594 -310 q 374 -192 374 -310 q 415 -68 374 -122 q 519 13 457 -14 l 507 107 l 469 28 q 286 -19 401 -19 q 116 37 183 -19 q 49 193 49 93 q 458 446 49 446 l 506 446 l 506 464 q 503 544 506 517 q 374 646 496 646 q 231 504 243 646 l 78 504 q 167 690 85 624 q 376 757 249 757 q 654 551 633 757 q 658 447 658 506 l 658 188 q 672 0 658 103 l 629 0 q 549 -49 582 -7 q 515 -149 515 -90 m 342 92 q 460 140 415 92 q 506 276 506 189 l 506 344 q 288 322 367 356 q 210 206 210 288 q 342 92 210 92 z "},"Ć":{"ha":983,"x_min":68,"x_max":928,"o":"m 554 1022 l 463 1022 l 550 1164 l 689 1164 l 554 1022 m 526 978 q 809 888 707 978 q 926 650 911 799 l 928 636 l 776 636 l 774 650 q 524 861 731 861 q 313 757 392 861 q 233 482 233 653 q 311 201 233 306 q 517 97 389 97 q 683 153 621 97 q 767 311 746 210 l 769 325 l 921 325 l 919 311 q 797 72 904 164 q 510 -19 690 -19 q 188 117 307 -19 q 68 475 68 254 q 196 839 68 700 q 526 978 324 978 z "},"ć":{"ha":756,"x_min":40,"x_max":719,"o":"m 419 803 l 328 803 l 424 961 l 563 961 l 419 803 m 397 757 q 620 681 535 757 q 719 482 706 606 l 565 482 q 393 646 533 646 q 255 577 308 646 q 201 376 201 508 q 253 163 201 233 q 388 92 306 92 q 499 131 454 92 q 560 244 543 169 l 715 244 q 601 48 690 115 q 379 -19 513 -19 q 134 78 228 -19 q 40 365 40 176 q 143 652 40 547 q 397 757 246 757 z "},"Ċ":{"ha":983,"x_min":68,"x_max":928,"o":"m 458 1154 q 469 1165 458 1154 q 515 1176 481 1176 q 573 1154 550 1176 q 596 1099 596 1132 q 573 1042 596 1064 q 515 1019 550 1019 q 458 1042 481 1019 q 435 1099 435 1064 q 458 1154 435 1132 m 526 978 q 809 888 707 978 q 926 650 911 799 l 928 636 l 776 636 l 774 650 q 524 861 731 861 q 313 757 392 861 q 233 482 233 653 q 311 201 233 306 q 517 97 389 97 q 683 153 621 97 q 767 311 746 210 l 769 325 l 921 325 l 919 311 q 797 72 904 164 q 510 -19 690 -19 q 188 117 307 -19 q 68 475 68 254 q 196 839 68 700 q 526 978 324 978 z "},"ċ":{"ha":756,"x_min":40,"x_max":719,"o":"m 318 969 q 331 982 318 969 q 382 994 343 994 q 447 969 421 994 q 472 907 472 944 q 447 843 472 868 q 382 818 421 818 q 318 843 343 818 q 293 907 293 868 q 318 969 293 944 m 397 757 q 620 681 535 757 q 719 482 706 606 l 565 482 q 393 646 533 646 q 255 577 308 646 q 201 376 201 508 q 253 163 201 233 q 388 92 306 92 q 499 131 454 92 q 560 244 543 169 l 715 244 q 601 48 690 115 q 379 -19 513 -19 q 134 78 228 -19 q 40 365 40 176 q 143 652 40 547 q 397 757 246 757 z "},"Č":{"ha":983,"x_min":68,"x_max":928,"o":"m 460 1022 l 368 1164 l 474 1164 l 517 1079 l 560 1164 l 664 1164 l 572 1022 l 460 1022 m 769 325 l 921 325 l 919 311 q 797 72 904 164 q 510 -19 690 -19 q 188 117 307 -19 q 68 475 68 254 q 196 839 68 700 q 526 978 324 978 q 809 888 707 978 q 926 650 911 799 l 928 636 l 776 636 l 774 650 q 524 861 731 861 q 313 757 392 861 q 233 482 233 653 q 311 201 233 306 q 517 97 389 97 q 683 153 621 97 q 767 311 746 210 l 769 325 z "},"č":{"ha":756,"x_min":40,"x_max":719,"o":"m 326 803 l 235 961 l 338 961 l 383 869 l 429 961 l 531 961 l 439 803 l 326 803 m 388 92 q 499 131 454 92 q 560 244 543 169 l 715 244 q 601 48 690 115 q 379 -19 513 -19 q 134 78 228 -19 q 40 365 40 176 q 143 652 40 547 q 397 757 246 757 q 620 681 535 757 q 719 482 706 606 l 565 482 q 393 646 533 646 q 255 577 308 646 q 201 376 201 508 q 253 163 201 233 q 388 92 306 92 z "},"Ď":{"ha":999,"x_min":132,"x_max":950,"o":"m 464 1022 l 372 1164 l 478 1164 l 521 1079 l 564 1164 l 668 1164 l 576 1022 l 464 1022 m 564 953 q 844 815 739 932 q 950 490 950 699 q 841 155 950 282 q 558 6 732 28 q 436 0 510 0 l 132 0 l 132 958 l 442 958 q 564 953 515 958 m 532 128 q 718 239 650 144 q 786 490 786 333 q 720 726 786 639 q 538 831 654 814 q 428 838 500 838 l 285 838 l 285 122 l 422 122 q 532 128 501 122 z "},"ď":{"ha":874,"x_min":40,"x_max":1004,"o":"m 1004 1022 l 1004 1006 l 906 810 l 808 810 l 892 1022 l 1004 1022 m 621 1021 l 774 1021 l 774 0 l 621 0 l 621 117 l 565 36 q 372 -19 496 -19 q 129 85 218 -19 q 40 357 40 190 q 142 653 40 550 q 397 757 244 757 q 572 711 514 757 l 621 638 l 621 1021 m 407 92 q 561 157 501 92 q 621 361 621 222 l 621 400 q 560 585 621 524 q 414 646 499 646 q 260 574 319 646 q 201 369 201 503 q 256 169 201 246 q 407 92 310 92 z "},"Đ":{"ha":994,"x_min":46,"x_max":944,"o":"m 558 953 q 839 815 733 932 q 944 490 944 699 q 836 155 944 282 q 554 6 728 28 q 432 0 506 0 l 128 0 l 128 419 l 46 419 l 46 511 l 128 511 l 128 958 l 436 958 q 558 953 510 958 m 528 128 q 713 239 644 144 q 782 490 782 333 q 716 726 782 639 q 533 831 650 814 q 422 838 493 838 l 279 838 l 279 511 l 457 511 l 457 419 l 279 419 l 279 122 l 418 122 q 528 128 497 122 z "},"đ":{"ha":878,"x_min":40,"x_max":833,"o":"m 833 819 l 774 819 l 774 0 l 621 0 l 621 117 l 565 36 q 372 -19 496 -19 q 129 85 218 -19 q 40 357 40 190 q 142 653 40 550 q 397 757 244 757 q 572 711 514 757 l 621 638 l 621 819 l 458 819 l 458 911 l 621 911 l 621 1021 l 774 1021 l 774 911 l 833 911 l 833 819 m 407 92 q 561 157 501 92 q 621 361 621 222 l 621 400 q 560 585 621 524 q 414 646 499 646 q 260 574 319 646 q 201 369 201 503 q 256 169 201 246 q 407 92 310 92 z "},"Ē":{"ha":833,"x_min":132,"x_max":794,"o":"m 646 1053 l 292 1053 l 292 1140 l 646 1140 l 646 1053 m 794 122 l 794 0 l 132 0 l 132 958 l 781 958 l 781 838 l 285 838 l 285 540 l 742 540 l 742 419 l 285 419 l 285 122 l 794 122 z "},"ē":{"ha":781,"x_min":40,"x_max":731,"o":"m 571 833 l 217 833 l 217 921 l 571 921 l 571 833 m 731 388 q 728 326 731 353 l 199 326 q 392 92 215 92 q 507 131 460 92 q 565 239 554 169 l 719 239 q 604 47 696 113 q 386 -19 513 -19 q 136 79 232 -19 q 40 367 40 178 q 141 649 40 542 q 401 757 242 757 q 644 653 557 757 q 731 388 731 550 m 396 646 q 264 592 315 646 q 200 433 213 538 l 574 433 q 520 591 565 536 q 396 646 475 646 z "},"Ė":{"ha":833,"x_min":132,"x_max":794,"o":"m 526 1042 q 514 1031 526 1042 q 468 1019 503 1019 q 410 1042 433 1019 q 388 1099 388 1064 q 410 1154 388 1132 q 468 1176 433 1176 q 526 1154 503 1176 q 549 1099 549 1132 q 526 1042 549 1064 m 794 122 l 794 0 l 132 0 l 132 958 l 781 958 l 781 838 l 285 838 l 285 540 l 742 540 l 742 419 l 285 419 l 285 122 l 794 122 z "},"ė":{"ha":781,"x_min":40,"x_max":731,"o":"m 458 843 q 445 831 458 843 q 393 818 432 818 q 329 843 354 818 q 304 907 304 868 q 329 969 304 944 q 393 994 354 994 q 458 969 432 994 q 483 907 483 944 q 458 843 483 868 m 731 388 q 728 326 731 353 l 199 326 q 392 92 215 92 q 507 131 460 92 q 565 239 554 169 l 719 239 q 604 47 696 113 q 386 -19 513 -19 q 136 79 232 -19 q 40 367 40 178 q 141 649 40 542 q 401 757 242 757 q 644 653 557 757 q 731 388 731 550 m 396 646 q 264 592 315 646 q 200 433 213 538 l 574 433 q 520 591 565 536 q 396 646 475 646 z "},"Ę":{"ha":833,"x_min":132,"x_max":799,"o":"m 725 -218 q 799 -190 763 -218 l 799 -267 q 658 -310 743 -310 q 522 -192 522 -310 q 556 -80 522 -129 q 642 0 589 -31 l 132 0 l 132 958 l 781 958 l 781 838 l 285 838 l 285 540 l 742 540 l 742 419 l 285 419 l 285 122 l 794 122 l 794 0 l 778 0 q 697 -49 731 -7 q 664 -149 664 -90 q 725 -218 664 -218 z "},"ę":{"ha":781,"x_min":40,"x_max":731,"o":"m 731 388 q 728 326 731 353 l 199 326 q 392 92 215 92 q 507 131 460 92 q 565 239 554 169 l 719 239 q 514 0 685 56 q 488 -7 493 -6 q 425 -62 450 -24 q 400 -149 400 -100 q 461 -218 400 -218 q 535 -190 499 -218 l 535 -267 q 394 -310 479 -310 q 258 -192 258 -310 q 350 -18 258 -87 q 125 92 210 -6 q 40 367 40 190 q 141 649 40 542 q 401 757 242 757 q 644 653 557 757 q 731 388 731 550 m 396 646 q 264 592 315 646 q 200 433 213 538 l 574 433 q 520 591 565 536 q 396 646 475 646 z "},"Ě":{"ha":833,"x_min":132,"x_max":794,"o":"m 413 1022 l 321 1164 l 426 1164 l 469 1079 l 513 1164 l 617 1164 l 525 1022 l 413 1022 m 794 122 l 794 0 l 132 0 l 132 958 l 781 958 l 781 838 l 285 838 l 285 540 l 742 540 l 742 419 l 285 419 l 285 122 l 794 122 z "},"ě":{"ha":781,"x_min":40,"x_max":731,"o":"m 338 803 l 246 961 l 349 961 l 394 869 l 440 961 l 542 961 l 450 803 l 338 803 m 731 388 q 728 326 731 353 l 199 326 q 392 92 215 92 q 507 131 460 92 q 565 239 554 169 l 719 239 q 604 47 696 113 q 386 -19 513 -19 q 136 79 232 -19 q 40 367 40 178 q 141 649 40 542 q 401 757 242 757 q 644 653 557 757 q 731 388 731 550 m 396 646 q 264 592 315 646 q 200 433 213 538 l 574 433 q 520 591 565 536 q 396 646 475 646 z "},"Ğ":{"ha":1003,"x_min":68,"x_max":932,"o":"m 665 1164 q 513 1006 665 1006 q 360 1164 360 1006 l 446 1164 q 513 1092 447 1092 q 579 1164 578 1092 l 665 1164 m 558 475 l 921 475 l 921 0 l 793 0 l 788 163 l 744 69 q 503 -19 663 -19 q 184 117 300 -19 q 68 475 68 253 q 197 839 68 700 q 529 978 326 978 q 813 888 711 978 q 931 650 915 799 l 932 636 l 779 636 l 776 650 q 526 861 736 861 q 313 757 393 861 q 233 482 233 653 q 312 201 233 306 q 519 97 390 97 q 697 167 626 97 q 772 353 767 238 l 558 353 l 558 475 z "},"ğ":{"ha":874,"x_min":40,"x_max":774,"o":"m 583 961 q 431 788 583 788 q 278 961 278 788 l 364 961 q 431 874 365 874 q 497 961 496 874 l 583 961 m 774 738 l 774 183 q 772 40 774 81 q 669 -210 767 -125 q 403 -296 572 -296 q 160 -233 246 -296 q 63 -49 74 -169 l 61 -35 l 211 -35 l 213 -47 q 270 -144 219 -108 q 404 -181 321 -181 q 560 -128 504 -181 q 619 24 615 -75 q 621 108 621 56 l 621 124 l 565 43 q 376 -12 496 -12 q 130 91 219 -12 q 40 360 40 194 q 142 654 40 551 q 397 757 244 757 q 572 711 514 757 l 621 638 l 621 738 l 774 738 m 407 99 q 561 164 501 99 q 621 368 621 229 l 621 400 q 560 585 621 524 q 414 646 499 646 q 260 576 319 646 q 201 374 201 506 q 256 175 201 251 q 407 99 310 99 z "},"Ġ":{"ha":1003,"x_min":68,"x_max":932,"o":"m 570 1042 q 559 1031 570 1042 q 513 1019 547 1019 q 455 1042 478 1019 q 432 1099 432 1064 q 455 1154 432 1132 q 513 1176 478 1176 q 570 1154 547 1176 q 593 1099 593 1132 q 570 1042 593 1064 m 558 475 l 921 475 l 921 0 l 793 0 l 788 163 l 744 69 q 503 -19 663 -19 q 184 117 300 -19 q 68 475 68 253 q 197 839 68 700 q 529 978 326 978 q 813 888 711 978 q 931 650 915 799 l 932 636 l 779 636 l 776 650 q 526 861 736 861 q 313 757 393 861 q 233 482 233 653 q 312 201 233 306 q 519 97 390 97 q 697 167 626 97 q 772 353 767 238 l 558 353 l 558 475 z "},"ġ":{"ha":874,"x_min":40,"x_max":774,"o":"m 495 843 q 482 831 495 843 q 431 818 469 818 q 367 843 392 818 q 342 907 342 868 q 367 969 342 944 q 431 994 392 994 q 495 969 469 994 q 521 907 521 944 q 495 843 521 868 m 774 738 l 774 183 q 772 40 774 81 q 669 -210 767 -125 q 403 -296 572 -296 q 160 -233 246 -296 q 63 -49 74 -169 l 61 -35 l 211 -35 l 213 -47 q 270 -144 219 -108 q 404 -181 321 -181 q 560 -128 504 -181 q 619 24 615 -75 q 621 108 621 56 l 621 124 l 565 43 q 376 -12 496 -12 q 130 91 219 -12 q 40 360 40 194 q 142 654 40 551 q 397 757 244 757 q 572 711 514 757 l 621 638 l 621 738 l 774 738 m 407 99 q 561 164 501 99 q 621 368 621 229 l 621 400 q 560 585 621 524 q 414 646 499 646 q 260 576 319 646 q 201 374 201 506 q 256 175 201 251 q 407 99 310 99 z "},"Ģ":{"ha":1003,"x_min":68,"x_max":932,"o":"m 558 475 l 921 475 l 921 0 l 793 0 l 788 163 l 744 69 q 503 -19 663 -19 q 184 117 300 -19 q 68 475 68 253 q 197 839 68 700 q 529 978 326 978 q 813 888 711 978 q 931 650 915 799 l 932 636 l 779 636 l 776 650 q 526 861 736 861 q 313 757 393 861 q 233 482 233 653 q 312 201 233 306 q 519 97 390 97 q 697 167 626 97 q 772 353 767 238 l 558 353 l 558 475 m 474 -67 l 586 -67 l 586 -82 l 488 -278 l 390 -278 l 474 -67 z "},"ģ":{"ha":874,"x_min":40,"x_max":774,"o":"m 476 803 l 365 803 l 365 818 l 463 1014 l 560 1014 l 476 803 m 774 738 l 774 183 q 772 40 774 81 q 669 -210 767 -125 q 403 -296 572 -296 q 160 -233 246 -296 q 63 -49 74 -169 l 61 -35 l 211 -35 l 213 -47 q 270 -144 219 -108 q 404 -181 321 -181 q 560 -128 504 -181 q 619 24 615 -75 q 621 108 621 56 l 621 124 l 565 43 q 376 -12 496 -12 q 130 91 219 -12 q 40 360 40 194 q 142 654 40 551 q 397 757 244 757 q 572 711 514 757 l 621 638 l 621 738 l 774 738 m 407 99 q 561 164 501 99 q 621 368 621 229 l 621 400 q 560 585 621 524 q 414 646 499 646 q 260 576 319 646 q 201 374 201 506 q 256 175 201 251 q 407 99 310 99 z "},"Ħ":{"ha":1028,"x_min":76,"x_max":983,"o":"m 983 690 l 928 690 l 928 0 l 776 0 l 776 408 l 285 408 l 285 0 l 132 0 l 132 690 l 76 690 l 76 782 l 132 782 l 132 958 l 285 958 l 285 782 l 776 782 l 776 958 l 928 958 l 928 782 l 983 782 l 983 690 m 776 690 l 285 690 l 285 532 l 776 532 l 776 690 z "},"ħ":{"ha":863,"x_min":40,"x_max":772,"o":"m 768 546 q 772 415 772 489 l 772 0 l 619 0 l 619 399 q 617 503 619 465 q 461 644 604 646 q 322 567 375 642 q 269 331 269 493 l 269 0 l 117 0 l 117 819 l 40 819 l 40 911 l 117 911 l 117 1028 l 269 1028 l 269 911 l 415 911 l 415 819 l 269 819 l 269 615 l 319 700 q 506 757 394 757 q 690 701 622 757 q 768 546 757 644 z "},"Ī":{"ha":385,"x_min":32,"x_max":386,"o":"m 386 1053 l 32 1053 l 32 1140 l 386 1140 l 386 1053 m 285 0 l 132 0 l 132 958 l 285 958 l 285 0 z "},"ī":{"ha":349,"x_min":-6,"x_max":350,"o":"m 350 833 l -6 833 l -6 921 l 350 921 l 350 833 m 249 0 l 96 0 l 96 738 l 249 738 l 249 0 z "},"Į":{"ha":385,"x_min":-17,"x_max":285,"o":"m 285 0 l 239 0 q 158 -49 192 -7 q 125 -149 125 -90 q 186 -218 125 -218 q 260 -190 224 -218 l 260 -267 q 119 -310 204 -310 q -17 -192 -17 -310 q 26 -67 -17 -121 q 131 14 68 -12 l 132 14 l 132 958 l 285 958 l 285 0 z "},"į":{"ha":349,"x_min":-51,"x_max":263,"o":"m 237 843 q 224 831 237 843 q 172 818 211 818 q 108 843 133 818 q 83 907 83 868 q 108 969 83 944 q 172 994 133 994 q 237 969 211 994 q 263 907 263 944 q 237 843 263 868 m 96 738 l 249 738 l 249 0 l 204 0 q 124 -49 157 -7 q 90 -149 90 -90 q 151 -218 90 -218 q 225 -190 189 -218 l 225 -267 q 85 -310 169 -310 q -51 -192 -51 -310 q -9 -67 -51 -121 q 96 14 33 -12 l 96 738 z "},"İ":{"ha":385,"x_min":128,"x_max":289,"o":"m 151 1154 q 162 1165 151 1154 q 208 1176 174 1176 q 266 1154 243 1176 q 289 1099 289 1132 q 266 1042 289 1064 q 208 1019 243 1019 q 151 1042 174 1019 q 128 1099 128 1064 q 151 1154 128 1132 m 285 0 l 132 0 l 132 958 l 285 958 l 285 0 z "},"ı":{"ha":349,"x_min":96,"x_max":249,"o":"m 249 0 l 96 0 l 96 738 l 249 738 l 249 0 z "},"Ĳ":{"ha":1172,"x_min":132,"x_max":1097,"o":"m 285 0 l 132 0 l 132 958 l 285 958 l 285 0 m 1097 958 l 1097 379 q 1093 256 1097 310 q 1005 54 1086 128 q 769 -19 924 -19 q 544 61 624 -19 q 460 283 464 142 l 458 336 l 611 336 l 614 283 q 783 97 624 97 q 943 265 929 97 q 944 372 944 294 l 944 958 l 1097 958 z "},"ĳ":{"ha":689,"x_min":83,"x_max":604,"o":"m 108 969 q 121 982 108 969 q 172 994 133 994 q 237 969 211 994 q 263 907 263 944 q 237 843 263 868 q 172 818 211 818 q 108 843 133 818 q 83 907 83 868 q 108 969 83 944 m 515 994 q 580 971 556 994 q 604 907 604 947 q 580 842 604 867 q 515 818 556 818 q 449 842 474 818 q 425 907 425 867 q 449 971 425 947 q 515 994 474 994 m 249 0 l 96 0 l 96 738 l 249 738 l 249 0 m 590 738 l 590 -43 q 588 -132 590 -82 q 532 -251 581 -211 q 382 -292 483 -292 q 318 -289 338 -292 l 318 -174 q 436 -110 428 -183 q 439 -47 439 -90 l 439 738 l 590 738 z "},"Ķ":{"ha":893,"x_min":132,"x_max":911,"o":"m 481 494 l 889 0 l 685 0 l 369 400 l 285 308 l 285 0 l 132 0 l 132 958 l 285 958 l 285 471 l 731 958 l 911 958 l 481 494 m 435 -67 l 547 -67 l 547 -82 l 449 -278 l 351 -278 l 435 -67 z "},"ķ":{"ha":764,"x_min":96,"x_max":763,"o":"m 763 0 l 564 0 l 314 303 l 249 231 l 249 0 l 96 0 l 96 1021 l 249 1021 l 249 382 l 571 738 l 758 738 l 422 392 l 763 0 m 350 -67 l 463 -67 l 463 -82 l 364 -278 l 267 -278 l 350 -67 z "},"Ĺ":{"ha":817,"x_min":132,"x_max":794,"o":"m 247 1022 l 156 1022 l 243 1164 l 382 1164 l 247 1022 m 794 126 l 794 0 l 132 0 l 132 958 l 285 958 l 285 126 l 794 126 z "},"ĺ":{"ha":364,"x_min":90,"x_max":344,"o":"m 201 1089 l 110 1089 l 206 1247 l 344 1247 l 201 1089 m 243 1021 l 243 225 q 244 156 243 178 q 265 113 247 124 q 332 106 283 101 l 332 -1 q 232 -8 281 -8 q 92 115 99 -8 q 90 221 90 143 l 90 1021 l 243 1021 z "},"Ļ":{"ha":817,"x_min":132,"x_max":794,"o":"m 794 126 l 794 0 l 132 0 l 132 958 l 285 958 l 285 126 l 794 126 m 421 -67 l 533 -67 l 533 -82 l 435 -278 l 338 -278 l 421 -67 z "},"ļ":{"ha":364,"x_min":54,"x_max":332,"o":"m 243 1021 l 243 225 q 244 156 243 178 q 265 113 247 124 q 332 106 283 101 l 332 -1 q 232 -8 281 -8 q 92 115 99 -8 q 90 221 90 143 l 90 1021 l 243 1021 m 250 -82 l 151 -278 l 54 -278 l 138 -67 l 250 -67 l 250 -82 z "},"Ľ":{"ha":817,"x_min":132,"x_max":794,"o":"m 794 126 l 794 0 l 132 0 l 132 958 l 285 958 l 285 126 l 794 126 z "},"ľ":{"ha":364,"x_min":90,"x_max":332,"o":"m 243 1021 l 243 225 q 244 156 243 178 q 265 113 247 124 q 332 106 283 101 l 332 -1 q 232 -8 281 -8 q 92 115 99 -8 q 90 221 90 143 l 90 1021 l 243 1021 z "},"Ŀ":{"ha":817,"x_min":132,"x_max":794,"o":"m 794 126 l 794 0 l 132 0 l 132 958 l 285 958 l 285 126 l 794 126 m 631 490 q 617 477 631 490 q 565 464 604 464 q 499 490 526 464 q 472 556 472 517 q 499 621 472 594 q 565 647 525 647 q 631 621 604 647 q 657 556 657 594 q 631 490 657 517 z "},"ŀ":{"ha":532,"x_min":90,"x_max":514,"o":"m 243 1021 l 243 225 q 244 156 243 178 q 265 113 247 124 q 332 106 283 101 l 332 -1 q 232 -8 281 -8 q 92 115 99 -8 q 90 221 90 143 l 90 1021 l 243 1021 m 360 618 q 373 631 360 618 q 425 643 386 643 q 489 618 464 643 q 514 556 514 593 q 489 493 514 518 q 425 468 464 468 q 360 493 386 468 q 335 556 335 518 q 360 618 335 593 z "},"Ł":{"ha":854,"x_min":24,"x_max":831,"o":"m 831 126 l 831 0 l 169 0 l 169 399 l 24 315 l 24 424 l 169 507 l 169 958 l 321 958 l 321 594 l 482 688 l 482 579 l 321 486 l 321 126 l 831 126 z "},"ł":{"ha":413,"x_min":38,"x_max":368,"o":"m 281 156 q 301 113 283 124 q 368 106 319 101 l 368 -1 q 268 -8 317 -8 q 128 115 133 -8 q 126 221 126 143 l 126 347 l 38 293 l 38 404 l 126 458 l 126 1021 l 278 1021 l 278 549 l 367 603 l 367 492 l 278 438 l 278 225 q 281 156 278 178 z "},"Ń":{"ha":1024,"x_min":132,"x_max":924,"o":"m 565 1022 l 474 1022 l 561 1164 l 700 1164 l 565 1022 m 924 0 l 704 0 l 279 790 q 285 458 285 644 l 285 0 l 132 0 l 132 958 l 347 958 l 776 163 q 772 497 772 325 l 772 958 l 922 958 l 924 0 z "},"ń":{"ha":842,"x_min":96,"x_max":751,"o":"m 610 961 l 467 803 l 375 803 l 471 961 l 610 961 m 747 546 q 751 415 751 489 l 751 0 l 599 0 l 599 399 q 596 503 599 465 q 440 644 583 644 q 301 569 354 644 q 249 331 249 493 l 249 0 l 96 0 l 96 738 l 249 738 l 249 615 l 299 700 q 485 757 374 757 q 669 701 601 757 q 747 546 736 644 z "},"Ņ":{"ha":1024,"x_min":132,"x_max":924,"o":"m 924 0 l 704 0 l 279 790 q 285 458 285 644 l 285 0 l 132 0 l 132 958 l 347 958 l 776 163 q 772 497 772 325 l 772 958 l 922 958 l 924 0 m 599 -82 l 500 -278 l 403 -278 l 486 -67 l 599 -67 l 599 -82 z "},"ņ":{"ha":842,"x_min":96,"x_max":751,"o":"m 747 546 q 751 415 751 489 l 751 0 l 599 0 l 599 399 q 596 503 599 465 q 440 644 583 644 q 301 569 354 644 q 249 331 249 493 l 249 0 l 96 0 l 96 738 l 249 738 l 249 615 l 299 700 q 485 757 374 757 q 669 701 601 757 q 747 546 736 644 m 290 -278 l 374 -67 l 486 -67 l 486 -82 l 388 -278 l 290 -278 z "},"Ň":{"ha":1024,"x_min":132,"x_max":924,"o":"m 471 1022 l 379 1164 l 485 1164 l 528 1079 l 571 1164 l 675 1164 l 583 1022 l 471 1022 m 704 0 l 279 790 q 285 458 285 644 l 285 0 l 132 0 l 132 958 l 347 958 l 776 163 q 772 497 772 325 l 772 958 l 922 958 l 924 0 l 704 0 z "},"ň":{"ha":842,"x_min":96,"x_max":751,"o":"m 486 803 l 374 803 l 282 961 l 385 961 l 431 869 l 476 961 l 578 961 l 486 803 m 747 546 q 751 415 751 489 l 751 0 l 599 0 l 599 399 q 596 503 599 465 q 440 644 583 644 q 301 569 354 644 q 249 331 249 493 l 249 0 l 96 0 l 96 738 l 249 738 l 249 615 l 299 700 q 485 757 374 757 q 669 701 601 757 q 747 546 736 644 z "},"Ŋ":{"ha":1024,"x_min":132,"x_max":924,"o":"m 924 958 l 924 -90 q 922 -147 924 -128 q 851 -273 913 -236 q 671 -310 790 -310 l 671 -192 q 749 -167 726 -190 q 771 -99 771 -144 l 771 -39 l 279 782 q 285 458 285 636 l 285 0 l 132 0 l 132 958 l 347 958 l 776 218 q 772 532 772 381 l 772 958 l 924 958 z "},"ŋ":{"ha":842,"x_min":96,"x_max":751,"o":"m 747 546 q 751 415 751 489 l 751 -68 q 750 -125 751 -106 q 681 -256 742 -219 q 489 -292 621 -292 l 489 -174 q 569 -158 544 -174 q 597 -103 593 -143 q 599 -64 599 -92 l 599 399 q 596 503 599 465 q 440 644 583 644 q 301 569 354 644 q 249 331 249 493 l 249 0 l 96 0 l 96 738 l 249 738 l 249 615 l 299 700 q 485 757 374 757 q 669 701 601 757 q 747 546 736 644 z "},"Ō":{"ha":1042,"x_min":68,"x_max":992,"o":"m 708 1053 l 354 1053 l 354 1140 l 708 1140 l 708 1053 m 531 978 q 869 842 747 978 q 992 479 992 706 q 869 117 992 253 q 531 -19 747 -19 q 191 117 314 -19 q 68 479 68 253 q 190 842 68 706 q 531 978 313 978 m 531 97 q 749 199 669 97 q 828 479 828 301 q 749 760 828 658 q 531 861 669 861 q 311 760 390 861 q 232 479 232 658 q 311 199 232 300 q 531 97 390 97 z "},"ō":{"ha":826,"x_min":40,"x_max":788,"o":"m 592 833 l 238 833 l 238 921 l 592 921 l 592 833 m 138 648 q 186 702 138 648 q 414 757 235 757 q 690 648 593 757 q 788 369 788 539 q 690 90 788 200 q 414 -19 592 -19 q 138 90 235 -19 q 40 369 40 200 q 138 648 40 539 m 414 92 q 569 167 513 92 q 625 369 625 243 q 569 571 625 496 q 414 646 513 646 q 258 571 314 646 q 201 369 201 496 q 258 167 201 243 q 414 92 314 92 z "},"Ő":{"ha":1042,"x_min":68,"x_max":992,"o":"m 453 1022 l 361 1022 l 449 1164 l 588 1164 l 453 1022 m 544 1022 l 632 1164 l 771 1164 l 636 1022 l 544 1022 m 531 978 q 869 842 747 978 q 992 479 992 706 q 869 117 992 253 q 531 -19 747 -19 q 191 117 314 -19 q 68 479 68 253 q 190 842 68 706 q 531 978 313 978 m 531 97 q 749 199 669 97 q 828 479 828 301 q 749 760 828 658 q 531 861 669 861 q 311 760 390 861 q 232 479 232 658 q 311 199 232 300 q 531 97 390 97 z "},"ő":{"ha":826,"x_min":40,"x_max":788,"o":"m 353 803 l 261 803 l 356 961 l 494 961 l 353 803 m 454 803 l 549 961 l 688 961 l 546 803 l 454 803 m 138 648 q 186 702 138 648 q 414 757 235 757 q 690 648 593 757 q 788 369 788 539 q 690 90 788 200 q 414 -19 592 -19 q 138 90 235 -19 q 40 369 40 200 q 138 648 40 539 m 414 92 q 569 167 513 92 q 625 369 625 243 q 569 571 625 496 q 414 646 513 646 q 258 571 314 646 q 201 369 201 496 q 258 167 201 243 q 414 92 314 92 z "},"Œ":{"ha":1529,"x_min":68,"x_max":1490,"o":"m 1490 122 l 1490 0 l 828 0 l 828 179 l 789 83 q 506 -19 690 -19 q 188 121 307 -19 q 68 479 68 261 q 188 838 68 697 q 506 978 307 978 q 672 954 608 978 q 789 872 735 931 l 828 776 l 828 958 l 1476 958 l 1476 838 l 981 838 l 981 540 l 1438 540 l 1438 419 l 981 419 l 981 122 l 1490 122 m 312 201 q 352 149 312 201 q 531 97 392 97 q 749 201 669 97 q 828 479 828 306 q 749 758 828 654 q 531 861 669 861 q 312 758 392 861 q 232 479 232 654 q 312 201 232 306 z "},"œ":{"ha":1367,"x_min":40,"x_max":1317,"o":"m 1317 388 q 1313 326 1317 367 l 786 326 q 846 149 794 207 q 976 92 897 92 q 1092 131 1044 92 q 1150 239 1139 169 l 1306 239 q 1191 47 1282 113 q 974 -19 1100 -19 q 701 143 786 -19 q 414 -19 614 -19 q 138 90 235 -19 q 40 369 40 200 q 138 648 40 539 q 414 757 235 757 q 707 589 619 757 q 990 757 797 757 q 1230 653 1143 757 q 1317 388 1317 549 m 414 92 q 569 167 513 92 q 625 369 625 243 q 569 571 625 496 q 414 646 513 646 q 258 571 314 646 q 201 369 201 496 q 258 167 201 243 q 414 92 314 92 m 788 433 l 1160 433 q 982 646 1140 646 q 851 592 901 646 q 788 433 800 538 z "},"Ŕ":{"ha":882,"x_min":132,"x_max":858,"o":"m 500 1022 l 408 1022 l 496 1164 l 635 1164 l 500 1022 m 792 247 q 858 0 808 68 l 690 0 q 642 228 657 83 q 504 399 621 392 q 433 400 481 400 l 285 400 l 285 0 l 132 0 l 132 958 l 463 958 q 594 953 549 958 q 838 697 838 921 q 789 551 838 608 q 660 468 740 493 q 792 247 775 418 m 285 518 l 444 518 q 531 521 507 518 q 637 567 597 528 q 676 678 676 606 q 543 832 676 814 q 454 838 510 838 l 285 838 l 285 518 z "},"ŕ":{"ha":490,"x_min":96,"x_max":476,"o":"m 303 803 l 211 803 l 307 961 l 446 961 l 303 803 m 425 756 q 476 747 453 756 l 476 628 q 308 575 368 635 q 249 383 249 515 l 249 0 l 96 0 l 96 738 l 249 738 l 249 613 l 311 714 q 425 756 364 756 z "},"Ŗ":{"ha":882,"x_min":132,"x_max":858,"o":"m 792 247 q 858 0 808 68 l 690 0 q 642 228 657 83 q 504 399 621 392 q 433 400 481 400 l 285 400 l 285 0 l 132 0 l 132 958 l 463 958 q 594 953 549 958 q 838 697 838 921 q 789 551 838 608 q 660 468 740 493 q 792 247 775 418 m 285 518 l 444 518 q 531 521 507 518 q 637 567 597 528 q 676 678 676 606 q 543 832 676 814 q 454 838 510 838 l 285 838 l 285 518 m 413 -67 l 525 -67 l 525 -82 l 426 -278 l 329 -278 l 413 -67 z "},"ŗ":{"ha":490,"x_min":42,"x_max":476,"o":"m 425 756 q 476 747 453 756 l 476 628 q 308 575 368 635 q 249 383 249 515 l 249 0 l 96 0 l 96 738 l 249 738 l 249 613 l 311 714 q 425 756 364 756 m 125 -67 l 238 -67 l 238 -82 l 139 -278 l 42 -278 l 125 -67 z "},"Ř":{"ha":882,"x_min":132,"x_max":858,"o":"m 406 1022 l 314 1164 l 419 1164 l 463 1079 l 506 1164 l 610 1164 l 518 1022 l 406 1022 m 792 247 q 858 0 808 68 l 690 0 q 642 228 657 83 q 504 399 621 392 q 433 400 481 400 l 285 400 l 285 0 l 132 0 l 132 958 l 463 958 q 594 953 549 958 q 838 697 838 921 q 789 551 838 608 q 660 468 740 493 q 792 247 775 418 m 285 518 l 444 518 q 531 521 507 518 q 637 567 597 528 q 676 678 676 606 q 543 832 676 814 q 454 838 510 838 l 285 838 l 285 518 z "},"ř":{"ha":490,"x_min":96,"x_max":476,"o":"m 210 803 l 118 961 l 221 961 l 267 869 l 313 961 l 414 961 l 322 803 l 210 803 m 425 756 q 476 747 453 756 l 476 628 q 308 575 368 635 q 249 383 249 515 l 249 0 l 96 0 l 96 738 l 249 738 l 249 613 l 311 714 q 425 756 364 756 z "},"Ś":{"ha":826,"x_min":67,"x_max":786,"o":"m 469 1022 l 378 1022 l 465 1164 l 604 1164 l 469 1022 m 439 978 q 676 898 592 978 q 775 686 760 818 l 617 686 q 560 815 608 769 q 431 861 513 861 q 315 828 360 861 q 269 729 269 794 q 316 622 269 660 q 475 558 363 585 q 710 449 635 521 q 786 260 786 378 q 688 57 786 133 q 446 -19 590 -19 q 181 58 281 -19 q 67 278 81 135 l 225 278 q 301 144 243 190 q 446 97 360 97 q 574 136 522 97 q 625 239 625 175 q 576 357 625 314 q 411 426 528 400 q 185 524 261 461 q 108 704 108 588 q 204 903 108 828 q 439 978 300 978 z "},"ś":{"ha":661,"x_min":32,"x_max":625,"o":"m 515 961 l 372 803 l 281 803 l 376 961 l 515 961 m 135 698 q 173 727 135 698 q 333 757 210 757 q 529 694 457 757 q 614 526 601 631 l 458 526 q 322 650 435 650 q 242 624 269 650 q 215 554 215 597 q 253 481 215 507 q 379 431 292 454 q 565 344 506 399 q 625 194 625 289 q 544 36 625 92 q 338 -19 464 -19 q 128 40 210 -19 q 32 221 47 100 l 186 221 q 343 89 211 89 q 435 113 399 89 q 471 183 471 138 q 431 260 471 231 q 296 315 390 290 q 122 395 183 344 q 61 536 61 446 q 135 698 61 639 z "},"Ş":{"ha":826,"x_min":67,"x_max":786,"o":"m 786 260 q 692 60 786 136 q 460 -19 599 -15 l 440 -57 q 557 -169 557 -72 q 506 -260 557 -229 q 371 -292 456 -292 q 299 -281 326 -292 l 299 -210 q 374 -224 331 -224 q 460 -169 460 -224 q 326 -112 460 -103 l 376 -15 q 160 75 240 0 q 67 278 79 150 l 225 278 q 301 144 243 190 q 446 97 360 97 q 574 136 522 97 q 625 239 625 175 q 576 357 625 314 q 411 426 528 400 q 185 524 261 461 q 108 704 108 588 q 204 903 108 828 q 439 978 300 978 q 676 898 592 978 q 775 686 760 818 l 617 686 q 560 815 608 769 q 431 861 513 861 q 315 828 360 861 q 269 729 269 794 q 316 622 269 660 q 475 558 363 585 q 710 449 635 521 q 786 260 786 378 z "},"ş":{"ha":661,"x_min":32,"x_max":625,"o":"m 565 344 q 595 316 565 344 q 625 194 625 289 q 557 45 625 100 q 378 -18 489 -10 l 358 -57 q 475 -169 475 -72 q 424 -260 475 -229 q 289 -292 374 -292 q 217 -281 244 -292 l 217 -210 q 292 -224 247 -224 q 378 -169 378 -224 q 244 -112 378 -103 l 294 -18 q 115 51 185 -8 q 32 221 46 111 l 186 221 q 343 89 211 89 q 435 113 399 89 q 471 183 471 138 q 431 260 471 231 q 296 315 390 290 q 122 395 183 344 q 61 536 61 446 q 135 698 61 639 q 333 757 210 757 q 529 694 457 757 q 614 526 601 631 l 458 526 q 322 650 435 650 q 242 624 269 650 q 215 554 215 597 q 253 481 215 507 q 379 431 292 454 q 565 344 506 399 z "},"Š":{"ha":826,"x_min":67,"x_max":786,"o":"m 375 1022 l 283 1164 l 389 1164 l 432 1079 l 475 1164 l 579 1164 l 488 1022 l 375 1022 m 475 558 q 710 449 635 521 q 786 260 786 378 q 688 57 786 133 q 446 -19 590 -19 q 181 58 281 -19 q 67 278 81 135 l 225 278 q 301 144 243 190 q 446 97 360 97 q 574 136 522 97 q 625 239 625 175 q 576 357 625 314 q 411 426 528 400 q 185 524 261 461 q 108 704 108 588 q 204 903 108 828 q 439 978 300 978 q 676 898 592 978 q 775 686 760 818 l 617 686 q 560 815 608 769 q 431 861 513 861 q 315 828 360 861 q 269 729 269 794 q 316 622 269 660 q 475 558 363 585 z "},"š":{"ha":661,"x_min":32,"x_max":625,"o":"m 392 803 l 279 803 l 188 961 l 290 961 l 336 869 l 382 961 l 483 961 l 392 803 m 379 431 q 565 344 506 399 q 625 194 625 289 q 544 36 625 92 q 338 -19 464 -19 q 128 40 210 -19 q 32 221 47 100 l 186 221 q 343 89 211 89 q 435 113 399 89 q 471 183 471 138 q 431 260 471 231 q 296 315 390 290 q 122 395 183 344 q 61 536 61 446 q 135 698 61 639 q 333 757 210 757 q 529 694 457 757 q 614 526 601 631 l 458 526 q 322 650 435 650 q 242 624 269 650 q 215 554 215 597 q 253 481 215 507 q 379 431 292 454 z "},"Ţ":{"ha":857,"x_min":40,"x_max":861,"o":"m 494 0 l 465 -57 q 582 -169 582 -72 q 531 -260 582 -229 q 396 -292 481 -292 q 324 -281 351 -292 l 324 -210 q 399 -224 354 -224 q 485 -169 485 -224 q 351 -112 485 -103 l 410 0 l 375 0 l 375 838 l 40 838 l 40 958 l 861 958 l 861 838 l 526 838 l 526 0 l 494 0 z "},"ţ":{"ha":465,"x_min":22,"x_max":422,"o":"m 278 625 l 278 239 q 279 178 278 197 q 310 108 283 124 q 413 100 338 93 l 413 -6 q 300 -14 354 -14 l 297 -14 l 275 -57 q 392 -169 392 -72 q 341 -260 392 -229 q 206 -292 290 -292 q 133 -281 161 -292 l 133 -210 q 208 -224 164 -224 q 294 -169 294 -224 q 161 -112 294 -103 l 218 -4 q 128 126 136 21 q 126 225 126 151 l 126 625 l 22 625 l 22 732 l 126 732 l 126 908 l 278 908 l 278 732 l 422 732 l 422 625 l 278 625 z "},"Ť":{"ha":857,"x_min":40,"x_max":861,"o":"m 394 1022 l 303 1164 l 408 1164 l 451 1079 l 494 1164 l 599 1164 l 507 1022 l 394 1022 m 861 838 l 526 838 l 526 0 l 375 0 l 375 838 l 40 838 l 40 958 l 861 958 l 861 838 z "},"ť":{"ha":453,"x_min":22,"x_max":522,"o":"m 522 1021 l 522 1006 l 424 808 l 326 808 l 410 1021 l 522 1021 m 278 732 l 422 732 l 422 625 l 278 625 l 278 239 q 279 178 278 197 q 310 108 283 124 q 413 100 338 93 l 413 -6 q 300 -14 354 -14 q 174 19 214 -14 q 128 126 133 53 q 126 225 126 151 l 126 625 l 22 625 l 22 732 l 126 732 l 126 908 l 278 908 l 278 732 z "},"Ŧ":{"ha":857,"x_min":40,"x_max":861,"o":"m 526 838 l 526 511 l 675 511 l 675 419 l 526 419 l 526 0 l 375 0 l 375 419 l 226 419 l 226 511 l 375 511 l 375 838 l 40 838 l 40 958 l 861 958 l 861 838 l 526 838 z "},"ŧ":{"ha":465,"x_min":22,"x_max":422,"o":"m 278 625 l 278 482 l 389 482 l 389 394 l 278 394 l 278 239 q 279 178 278 197 q 310 108 283 124 q 413 100 338 93 l 413 -6 q 300 -14 354 -14 q 174 19 214 -14 q 128 126 133 53 q 126 225 126 151 l 126 394 l 35 394 l 35 482 l 126 482 l 126 625 l 22 625 l 22 732 l 126 732 l 126 908 l 278 908 l 278 732 l 422 732 l 422 625 l 278 625 z "},"Ū":{"ha":960,"x_min":122,"x_max":874,"o":"m 675 1053 l 321 1053 l 321 1140 l 675 1140 l 675 1053 m 874 958 l 874 371 q 871 272 874 308 q 767 62 860 143 q 497 -19 675 -19 q 227 62 319 -19 q 125 272 135 143 q 122 371 122 308 l 122 958 l 274 958 l 274 368 q 276 290 274 313 q 340 149 283 201 q 497 97 397 97 q 656 149 599 97 q 719 290 713 201 q 722 368 722 313 l 722 958 l 874 958 z "},"ū":{"ha":839,"x_min":85,"x_max":739,"o":"m 589 833 l 235 833 l 235 921 l 589 921 l 589 833 m 739 738 l 739 0 l 588 0 l 588 126 l 536 35 q 350 -19 460 -19 q 173 34 240 -19 q 92 168 106 88 q 85 299 85 215 l 85 738 l 236 738 l 236 329 q 242 228 236 278 q 290 130 250 165 q 400 94 331 94 q 537 166 486 94 q 588 390 588 238 l 588 738 l 739 738 z "},"Ů":{"ha":960,"x_min":122,"x_max":874,"o":"m 399 1201 q 418 1218 399 1201 q 497 1235 438 1235 q 595 1201 557 1235 q 633 1115 633 1168 q 595 1031 633 1064 q 497 997 557 997 q 399 1031 438 997 q 361 1115 361 1064 q 399 1201 361 1168 m 537 1158 q 529 1166 537 1158 q 497 1174 521 1174 q 458 1158 474 1174 q 442 1115 442 1142 q 458 1074 442 1090 q 497 1057 474 1057 q 537 1074 521 1057 q 553 1115 553 1090 q 537 1158 553 1142 m 874 958 l 874 371 q 871 272 874 308 q 767 62 860 143 q 497 -19 675 -19 q 227 62 319 -19 q 125 272 135 143 q 122 371 122 308 l 122 958 l 274 958 l 274 368 q 276 290 274 313 q 340 149 283 201 q 497 97 397 97 q 656 149 599 97 q 719 290 713 201 q 722 368 722 313 l 722 958 l 874 958 z "},"ů":{"ha":839,"x_min":85,"x_max":739,"o":"m 509 821 q 490 803 509 821 q 411 786 471 786 q 313 821 351 786 q 275 910 275 856 q 313 1000 275 965 q 411 1035 351 1035 q 509 1000 471 1035 q 547 910 547 965 q 509 821 547 856 m 451 957 q 444 966 451 957 q 411 975 436 975 q 371 957 386 975 q 356 910 356 939 q 371 863 356 881 q 411 846 386 846 q 451 863 436 846 q 467 910 467 881 q 451 957 467 939 m 739 738 l 739 0 l 588 0 l 588 126 l 536 35 q 350 -19 460 -19 q 173 34 240 -19 q 92 168 106 88 q 85 299 85 215 l 85 738 l 236 738 l 236 329 q 242 228 236 278 q 290 130 250 165 q 400 94 331 94 q 537 166 486 94 q 588 390 588 238 l 588 738 l 739 738 z "},"Ű":{"ha":960,"x_min":122,"x_max":874,"o":"m 419 1022 l 328 1022 l 415 1164 l 554 1164 l 419 1022 m 603 1022 l 511 1022 l 599 1164 l 738 1164 l 603 1022 m 874 958 l 874 371 q 871 272 874 308 q 767 62 860 143 q 497 -19 675 -19 q 227 62 319 -19 q 125 272 135 143 q 122 371 122 308 l 122 958 l 274 958 l 274 368 q 276 290 274 313 q 340 149 283 201 q 497 97 397 97 q 656 149 599 97 q 719 290 713 201 q 722 368 722 313 l 722 958 l 874 958 z "},"ű":{"ha":839,"x_min":85,"x_max":739,"o":"m 350 803 l 258 803 l 353 961 l 492 961 l 350 803 m 451 803 l 546 961 l 685 961 l 543 803 l 451 803 m 739 738 l 739 0 l 588 0 l 588 126 l 536 35 q 350 -19 460 -19 q 173 34 240 -19 q 92 168 106 88 q 85 299 85 215 l 85 738 l 236 738 l 236 329 q 242 228 236 278 q 290 130 250 165 q 400 94 331 94 q 537 166 486 94 q 588 390 588 238 l 588 738 l 739 738 z "},"Ų":{"ha":960,"x_min":122,"x_max":874,"o":"m 874 958 l 874 371 q 871 272 874 308 q 801 95 863 169 q 625 -6 740 21 q 559 -60 585 -21 q 533 -149 533 -99 q 594 -218 533 -218 q 668 -190 632 -218 l 668 -267 q 528 -310 613 -310 q 392 -192 392 -310 q 482 -19 392 -87 q 224 65 313 -15 q 125 272 135 146 q 122 371 122 308 l 122 958 l 274 958 l 274 368 q 276 290 274 313 q 340 149 283 201 q 497 97 397 97 q 656 149 599 97 q 719 290 713 201 q 722 368 722 313 l 722 958 l 874 958 z "},"ų":{"ha":839,"x_min":85,"x_max":739,"o":"m 739 0 l 696 0 q 615 -49 649 -7 q 582 -149 582 -90 q 643 -218 582 -218 q 717 -190 681 -218 l 717 -267 q 576 -310 661 -310 q 440 -192 440 -310 q 483 -67 440 -121 q 588 14 525 -12 l 588 126 l 536 35 q 350 -19 460 -19 q 173 34 240 -19 q 92 168 106 88 q 85 299 85 215 l 85 738 l 236 738 l 236 329 q 242 228 236 278 q 290 130 250 165 q 400 94 331 94 q 537 166 486 94 q 588 390 588 238 l 588 738 l 739 738 l 739 0 z "},"Ŵ":{"ha":1344,"x_min":36,"x_max":1342,"o":"m 647 1022 l 543 1022 l 635 1164 l 747 1164 l 839 1022 l 733 1022 l 690 1106 l 647 1022 m 1342 958 l 1081 0 l 879 0 l 688 817 l 486 0 l 283 0 l 36 958 l 204 958 l 388 126 l 586 944 l 796 944 l 989 122 l 1183 958 l 1342 958 z "},"ŵ":{"ha":1119,"x_min":1,"x_max":1115,"o":"m 515 803 l 414 803 l 506 961 l 618 961 l 710 803 l 607 803 l 561 893 l 515 803 m 1115 738 l 881 0 l 706 0 l 560 596 l 413 0 l 236 0 l 1 738 l 174 738 l 325 136 l 468 736 l 654 736 l 801 135 l 953 738 l 1115 738 z "},"Ŷ":{"ha":836,"x_min":25,"x_max":854,"o":"m 396 1022 l 292 1022 l 383 1164 l 496 1164 l 588 1022 l 482 1022 l 439 1106 l 396 1022 m 515 375 l 515 0 l 364 0 l 364 375 l 25 958 l 199 958 l 446 515 l 685 958 l 854 958 l 515 375 z "},"ŷ":{"ha":746,"x_min":1,"x_max":742,"o":"m 326 803 l 225 803 l 317 961 l 429 961 l 521 803 l 418 803 l 372 893 l 326 803 m 742 738 l 442 -47 q 326 -235 390 -179 q 161 -292 261 -292 q 89 -287 111 -292 l 89 -175 q 138 -176 107 -176 q 228 -150 192 -176 q 288 -61 264 -124 l 299 -35 l 1 738 l 172 738 l 375 114 l 576 738 l 742 738 z "},"Ÿ":{"ha":836,"x_min":25,"x_max":854,"o":"m 385 1040 q 374 1029 385 1040 q 332 1018 364 1018 q 278 1040 300 1018 q 257 1092 257 1061 q 278 1144 257 1122 q 332 1165 300 1165 q 385 1144 364 1165 q 406 1092 406 1122 q 385 1040 406 1061 m 547 1018 q 494 1040 515 1018 q 472 1092 472 1061 q 494 1144 472 1122 q 547 1165 515 1165 q 599 1144 578 1165 q 621 1092 621 1122 q 599 1040 621 1061 q 547 1018 578 1018 m 515 375 l 515 0 l 364 0 l 364 375 l 25 958 l 199 958 l 446 515 l 685 958 l 854 958 l 515 375 z "},"Ź":{"ha":840,"x_min":67,"x_max":807,"o":"m 476 1022 l 385 1022 l 472 1164 l 611 1164 l 476 1022 m 807 122 l 807 0 l 67 0 l 67 117 l 622 838 l 106 838 l 106 958 l 800 958 l 800 839 l 249 122 l 807 122 z "},"ź":{"ha":664,"x_min":33,"x_max":624,"o":"m 374 803 l 282 803 l 378 961 l 517 961 l 374 803 m 624 110 l 624 0 l 33 0 l 33 106 l 449 622 l 61 622 l 61 732 l 618 732 l 618 622 l 206 110 l 624 110 z "},"Ż":{"ha":840,"x_min":67,"x_max":807,"o":"m 495 1042 q 484 1031 495 1042 q 438 1019 472 1019 q 380 1042 403 1019 q 357 1099 357 1064 q 380 1154 357 1132 q 438 1176 403 1176 q 495 1154 472 1176 q 518 1099 518 1132 q 495 1042 518 1064 m 807 122 l 807 0 l 67 0 l 67 117 l 622 838 l 106 838 l 106 958 l 800 958 l 800 839 l 249 122 l 807 122 z "},"ż":{"ha":664,"x_min":33,"x_max":624,"o":"m 401 843 q 388 831 401 843 q 336 818 375 818 q 272 843 297 818 q 247 907 247 868 q 272 969 247 944 q 336 994 297 994 q 401 969 375 994 q 426 907 426 944 q 401 843 426 868 m 624 110 l 624 0 l 33 0 l 33 106 l 449 622 l 61 622 l 61 732 l 618 732 l 618 622 l 206 110 l 624 110 z "},"Ž":{"ha":840,"x_min":67,"x_max":807,"o":"m 382 1022 l 290 1164 l 396 1164 l 439 1079 l 482 1164 l 586 1164 l 494 1022 l 382 1022 m 807 122 l 807 0 l 67 0 l 67 117 l 622 838 l 106 838 l 106 958 l 800 958 l 800 839 l 249 122 l 807 122 z "},"ž":{"ha":664,"x_min":33,"x_max":624,"o":"m 281 803 l 189 961 l 292 961 l 338 869 l 383 961 l 485 961 l 393 803 l 281 803 m 624 110 l 624 0 l 33 0 l 33 106 l 449 622 l 61 622 l 61 732 l 618 732 l 618 622 l 206 110 l 624 110 z "},"Ș":{"ha":826,"x_min":67,"x_max":786,"o":"m 439 978 q 676 898 592 978 q 775 686 760 818 l 617 686 q 560 815 608 769 q 431 861 513 861 q 315 828 360 861 q 269 729 269 794 q 316 622 269 660 q 475 558 363 585 q 710 449 635 521 q 786 260 786 378 q 688 57 786 133 q 446 -19 590 -19 q 181 58 281 -19 q 67 278 81 135 l 225 278 q 301 144 243 190 q 446 97 360 97 q 574 136 522 97 q 625 239 625 175 q 576 357 625 314 q 411 426 528 400 q 185 524 261 461 q 108 704 108 588 q 204 903 108 828 q 439 978 300 978 m 497 -82 l 399 -278 l 301 -278 l 385 -67 l 497 -67 l 497 -82 z "},"ș":{"ha":661,"x_min":32,"x_max":625,"o":"m 135 698 q 173 727 135 698 q 333 757 210 757 q 529 694 457 757 q 614 526 601 631 l 458 526 q 322 650 435 650 q 242 624 269 650 q 215 554 215 597 q 253 481 215 507 q 379 431 292 454 q 565 344 506 399 q 625 194 625 289 q 544 36 625 92 q 338 -19 464 -19 q 128 40 210 -19 q 32 221 47 100 l 186 221 q 343 89 211 89 q 435 113 399 89 q 471 183 471 138 q 431 260 471 231 q 296 315 390 290 q 122 395 183 344 q 61 536 61 446 q 135 698 61 639 m 410 -67 l 410 -82 l 311 -278 l 214 -278 l 297 -67 l 410 -67 z "},"Ț":{"ha":857,"x_min":40,"x_max":861,"o":"m 861 838 l 526 838 l 526 0 l 375 0 l 375 838 l 40 838 l 40 958 l 861 958 l 861 838 m 410 -67 l 522 -67 l 522 -82 l 424 -278 l 326 -278 l 410 -67 z "},"ț":{"ha":465,"x_min":22,"x_max":422,"o":"m 278 625 l 278 239 q 279 178 278 197 q 310 108 283 124 q 413 100 338 93 l 413 -6 q 300 -14 354 -14 q 174 19 214 -14 q 128 126 133 53 q 126 225 126 151 l 126 625 l 22 625 l 22 732 l 126 732 l 126 908 l 278 908 l 278 732 l 422 732 l 422 625 l 278 625 m 214 -67 l 326 -67 l 326 -82 l 228 -278 l 131 -278 l 214 -67 z "},"ˆ":{"ha":417,"x_min":61,"x_max":357,"o":"m 254 803 l 208 893 l 163 803 l 61 803 l 153 961 l 265 961 l 357 803 l 254 803 z "},"ˇ":{"ha":417,"x_min":61,"x_max":357,"o":"m 357 961 l 265 803 l 153 803 l 61 961 l 164 961 l 210 869 l 256 961 l 357 961 z "},"˘":{"ha":417,"x_min":56,"x_max":361,"o":"m 275 961 l 361 961 q 208 788 361 788 q 56 961 56 788 l 142 961 q 208 874 143 874 q 275 961 274 874 z "},"˙":{"ha":417,"x_min":119,"x_max":299,"o":"m 144 969 q 157 982 144 969 q 208 994 169 994 q 273 969 247 994 q 299 907 299 944 q 273 843 299 868 q 208 818 247 818 q 144 843 169 818 q 119 907 119 868 q 144 969 119 944 z "},"˚":{"ha":417,"x_min":72,"x_max":344,"o":"m 110 1000 q 130 1017 110 1000 q 208 1035 149 1035 q 306 1000 268 1035 q 344 910 344 965 q 306 821 344 856 q 208 786 268 786 q 110 821 149 786 q 72 910 72 856 q 110 1000 72 965 m 249 957 q 241 966 249 957 q 208 975 233 975 q 168 957 183 975 q 153 910 153 939 q 168 863 153 881 q 208 846 183 846 q 249 863 233 846 q 264 910 264 881 q 249 957 264 939 z "},"˛":{"ha":417,"x_min":61,"x_max":338,"o":"m 208 14 l 317 0 q 236 -49 269 -7 q 203 -149 203 -90 q 264 -218 203 -218 q 338 -190 301 -218 l 338 -267 q 197 -310 282 -310 q 61 -192 61 -310 q 103 -67 61 -121 q 208 14 146 -12 z "},"˜":{"ha":417,"x_min":42,"x_max":376,"o":"m 126 944 q 219 925 168 944 q 281 908 264 908 q 303 940 303 908 l 376 940 q 355 847 376 874 q 290 819 333 819 q 197 839 256 819 q 136 856 153 856 q 114 825 114 856 l 42 825 q 63 917 42 890 q 126 944 83 944 z "},"˝":{"ha":417,"x_min":56,"x_max":482,"o":"m 147 803 l 56 803 l 150 961 l 289 961 l 147 803 m 340 803 l 249 803 l 343 961 l 482 961 l 340 803 z "},"̦":{"ha":0,"x_min":85,"x_max":281,"o":"m 281 -82 l 182 -278 l 85 -278 l 168 -67 l 281 -67 l 281 -82 z "},"Ẁ":{"ha":1344,"x_min":36,"x_max":1342,"o":"m 653 1022 l 518 1164 l 657 1164 l 744 1022 l 653 1022 m 1342 958 l 1081 0 l 879 0 l 688 817 l 486 0 l 283 0 l 36 958 l 204 958 l 388 126 l 586 944 l 796 944 l 989 122 l 1183 958 l 1342 958 z "},"ẁ":{"ha":1119,"x_min":1,"x_max":1115,"o":"m 526 803 l 385 961 l 524 961 l 618 803 l 526 803 m 1115 738 l 881 0 l 706 0 l 560 596 l 413 0 l 236 0 l 1 738 l 174 738 l 325 136 l 468 736 l 654 736 l 801 135 l 953 738 l 1115 738 z "},"Ẃ":{"ha":1344,"x_min":36,"x_max":1342,"o":"m 729 1022 l 638 1022 l 725 1164 l 864 1164 l 729 1022 m 1342 958 l 1081 0 l 879 0 l 688 817 l 486 0 l 283 0 l 36 958 l 204 958 l 388 126 l 586 944 l 796 944 l 989 122 l 1183 958 l 1342 958 z "},"ẃ":{"ha":1119,"x_min":1,"x_max":1115,"o":"m 599 803 l 507 803 l 603 961 l 742 961 l 599 803 m 1115 738 l 881 0 l 706 0 l 560 596 l 413 0 l 236 0 l 1 738 l 174 738 l 325 136 l 468 736 l 654 736 l 801 135 l 953 738 l 1115 738 z "},"Ẅ":{"ha":1344,"x_min":36,"x_max":1342,"o":"m 583 1018 q 530 1040 551 1018 q 508 1092 508 1061 q 530 1144 508 1122 q 583 1165 551 1165 q 635 1144 614 1165 q 657 1092 657 1122 q 635 1040 657 1061 q 583 1018 614 1018 m 851 1040 q 841 1029 851 1040 q 799 1018 831 1018 q 745 1040 767 1018 q 724 1092 724 1061 q 745 1144 724 1122 q 799 1165 767 1165 q 851 1144 831 1165 q 872 1092 872 1122 q 851 1040 872 1061 m 1342 958 l 1081 0 l 879 0 l 688 817 l 486 0 l 283 0 l 36 958 l 204 958 l 388 126 l 586 944 l 796 944 l 989 122 l 1183 958 l 1342 958 z "},"ẅ":{"ha":1119,"x_min":1,"x_max":1115,"o":"m 503 826 q 493 816 503 826 q 450 806 482 806 q 397 826 418 806 q 376 878 376 847 q 398 930 376 908 q 450 951 419 951 q 503 930 482 951 q 525 878 525 908 q 503 826 525 847 m 725 826 q 715 816 725 826 q 672 806 704 806 q 619 826 640 806 q 599 878 599 847 q 620 930 599 908 q 672 951 642 951 q 724 930 703 951 q 746 878 746 908 q 725 826 746 847 m 1115 738 l 881 0 l 706 0 l 560 596 l 413 0 l 236 0 l 1 738 l 174 738 l 325 136 l 468 736 l 654 736 l 801 135 l 953 738 l 1115 738 z "},"Ỳ":{"ha":836,"x_min":25,"x_max":854,"o":"m 401 1022 l 267 1164 l 406 1164 l 493 1022 l 401 1022 m 515 375 l 515 0 l 364 0 l 364 375 l 25 958 l 199 958 l 446 515 l 685 958 l 854 958 l 515 375 z "},"ỳ":{"ha":746,"x_min":1,"x_max":742,"o":"m 338 803 l 196 961 l 335 961 l 429 803 l 338 803 m 742 738 l 442 -47 q 326 -235 390 -179 q 161 -292 261 -292 q 89 -287 111 -292 l 89 -175 q 138 -176 107 -176 q 228 -150 192 -176 q 288 -61 264 -124 l 299 -35 l 1 738 l 172 738 l 375 114 l 576 738 l 742 738 z "},"–":{"ha":694,"x_min":104,"x_max":590,"o":"m 590 360 l 104 360 l 104 451 l 590 451 l 590 360 z "},"—":{"ha":1389,"x_min":104,"x_max":1285,"o":"m 1285 360 l 104 360 l 104 451 l 1285 451 l 1285 360 z "},"‘":{"ha":369,"x_min":76,"x_max":340,"o":"m 76 672 l 213 1021 l 340 1021 l 232 658 l 76 658 l 76 672 z "},"’":{"ha":369,"x_min":29,"x_max":293,"o":"m 293 1007 l 157 658 l 29 658 l 138 1021 l 293 1021 l 293 1007 z "},"‚":{"ha":322,"x_min":-42,"x_max":222,"o":"m 222 150 l 92 -168 l -42 -168 l 68 164 l 222 164 l 222 150 z "},"“":{"ha":629,"x_min":76,"x_max":600,"o":"m 76 672 l 213 1022 l 340 1022 l 232 658 l 76 658 l 76 672 m 336 672 l 472 1022 l 600 1022 l 492 658 l 336 658 l 336 672 z "},"”":{"ha":629,"x_min":29,"x_max":553,"o":"m 293 1007 l 157 658 l 29 658 l 138 1021 l 293 1021 l 293 1007 m 553 1007 l 418 658 l 289 658 l 399 1021 l 553 1021 l 553 1007 z "},"„":{"ha":582,"x_min":-42,"x_max":483,"o":"m 222 150 l 92 -168 l -42 -168 l 68 164 l 222 164 l 222 150 m 483 150 l 351 -168 l 219 -168 l 328 164 l 483 164 l 483 150 z "},"†":{"ha":771,"x_min":71,"x_max":700,"o":"m 700 507 l 450 517 l 467 -222 l 304 -222 l 321 515 l 71 507 l 71 640 l 319 632 l 304 958 l 467 958 l 451 632 l 700 640 l 700 507 z "},"‡":{"ha":771,"x_min":71,"x_max":700,"o":"m 450 517 l 450 219 l 700 229 l 700 96 l 451 104 l 467 -222 l 304 -222 l 319 104 l 71 96 l 71 229 l 321 221 l 321 515 l 71 507 l 71 640 l 319 632 l 304 958 l 467 958 l 451 632 l 700 640 l 700 507 l 450 517 z "},"•":{"ha":515,"x_min":104,"x_max":411,"o":"m 258 578 q 367 534 324 578 q 411 424 411 490 q 367 314 411 357 q 258 271 324 271 q 148 314 192 271 q 104 424 104 357 q 148 534 104 490 q 258 578 192 578 z "},"…":{"ha":933,"x_min":53,"x_max":867,"o":"m 81 155 q 95 169 81 155 q 154 183 110 183 q 227 155 199 183 q 256 82 256 126 q 226 10 256 39 q 154 -19 197 -19 q 81 9 110 -19 q 53 82 53 38 q 81 155 53 126 m 387 155 q 401 169 387 155 q 460 183 415 183 q 533 155 504 183 q 561 82 561 126 q 532 10 561 39 q 460 -19 503 -19 q 387 9 415 -19 q 358 82 358 38 q 387 155 358 126 m 692 155 q 707 169 692 155 q 765 183 721 183 q 838 155 810 183 q 867 82 867 126 q 838 10 867 39 q 765 -19 808 -19 q 692 9 721 -19 q 664 82 664 38 q 692 155 664 126 z "},"‰":{"ha":1515,"x_min":54,"x_max":1461,"o":"m 417 914 q 445 884 417 914 q 474 750 474 854 q 417 585 474 646 q 264 525 360 525 q 110 585 167 525 q 54 750 54 646 q 110 914 54 854 q 264 974 167 974 q 417 914 360 974 m 901 958 l 279 0 l 146 0 l 768 958 l 901 958 m 201 848 q 190 831 201 848 q 179 750 179 814 q 201 651 179 686 q 264 617 224 617 q 326 651 303 617 q 349 750 349 686 q 326 848 349 814 q 264 882 303 882 q 201 848 224 882 m 779 429 q 933 369 876 429 q 989 206 989 310 q 933 41 989 101 q 779 -19 876 -19 q 626 41 683 -19 q 569 206 569 101 q 626 369 569 310 q 779 429 683 429 m 1251 429 q 1405 369 1349 429 q 1461 206 1461 310 q 1405 41 1461 101 q 1251 -19 1349 -19 q 1099 41 1156 -19 q 1042 206 1042 101 q 1099 369 1042 310 q 1251 429 1156 429 m 779 72 q 842 107 819 72 q 864 206 864 142 q 842 303 864 269 q 779 338 819 338 q 717 303 740 338 q 694 206 694 269 q 717 107 694 142 q 779 72 740 72 m 1251 72 q 1314 107 1292 72 q 1336 206 1336 142 q 1314 303 1336 269 q 1251 338 1292 338 q 1190 303 1213 338 q 1167 206 1167 269 q 1190 107 1167 142 q 1251 72 1213 72 z "},"‹":{"ha":563,"x_min":176,"x_max":488,"o":"m 488 575 l 297 344 l 488 114 l 367 114 l 176 344 l 367 575 l 488 575 z "},"›":{"ha":550,"x_min":75,"x_max":386,"o":"m 386 344 l 196 114 l 75 114 l 265 344 l 75 575 l 196 575 l 386 344 z "},"⁄":{"ha":374,"x_min":-192,"x_max":564,"o":"m -58 0 l -192 0 l 431 958 l 564 958 l -58 0 z "},"€":{"ha":835,"x_min":44,"x_max":804,"o":"m 656 349 l 313 349 q 395 157 332 217 q 564 97 458 97 q 768 153 681 97 l 768 33 q 543 -19 675 -19 q 269 66 369 -19 q 146 349 169 151 l 44 349 l 61 440 l 139 440 l 139 475 q 140 514 139 501 l 74 514 l 92 606 l 149 606 q 288 885 178 792 q 564 978 397 978 q 804 892 726 978 l 739 794 q 565 861 672 861 q 313 606 353 861 l 703 606 l 683 514 l 304 514 l 304 481 l 304 440 l 671 440 l 656 349 z "},"™":{"ha":749,"x_min":29,"x_max":668,"o":"m 306 917 l 306 858 l 204 858 l 204 633 l 131 633 l 131 858 l 29 858 l 29 917 l 306 917 m 668 915 l 668 633 l 594 633 l 597 831 l 542 639 l 465 639 l 411 829 l 413 633 l 339 633 l 339 915 l 449 915 l 506 706 l 561 915 l 668 915 z "},"∂":{"ha":835,"x_min":61,"x_max":765,"o":"m 381 1053 q 562 1008 485 1053 q 682 884 639 964 q 745 706 725 804 q 765 489 765 608 q 667 103 765 226 q 396 -19 568 -19 q 157 72 253 -19 q 61 332 61 164 q 152 591 61 490 q 404 692 243 692 q 599 604 539 692 q 367 939 574 939 q 168 868 257 939 l 110 963 q 381 1053 225 1053 m 407 96 q 606 464 599 96 q 419 576 550 576 q 274 513 324 576 q 224 336 224 449 q 274 158 224 219 q 407 96 325 96 z "},"∅":{"ha":1164,"x_min":42,"x_max":1122,"o":"m 1114 951 l 1001 839 q 1122 493 1122 689 q 965 106 1122 265 q 582 -54 807 -54 q 236 72 385 -54 l 118 -46 l 51 22 l 168 139 q 42 493 42 292 q 199 881 42 721 q 582 1040 357 1040 q 936 907 785 1040 l 1047 1018 l 1114 951 m 144 493 q 239 210 144 333 l 867 838 q 582 946 744 946 q 272 814 399 946 q 144 493 144 682 m 582 40 q 892 172 765 40 q 1019 493 1019 303 q 931 768 1019 646 l 304 142 q 582 40 424 40 z "},"∏":{"ha":835,"x_min":46,"x_max":789,"o":"m 789 838 l 706 838 l 706 -153 l 554 -153 l 554 838 l 281 838 l 281 -153 l 129 -153 l 129 838 l 46 838 l 46 958 l 789 958 l 789 838 z "},"∑":{"ha":835,"x_min":67,"x_max":771,"o":"m 771 -32 l 771 -153 l 67 -153 l 67 -43 l 439 418 l 108 849 l 108 958 l 763 958 l 763 838 l 290 838 l 615 417 l 247 -32 l 771 -32 z "},"−":{"ha":835,"x_min":121,"x_max":714,"o":"m 714 397 l 121 397 l 121 489 l 714 489 l 714 397 z "},"√":{"ha":835,"x_min":89,"x_max":786,"o":"m 786 1083 l 485 -222 l 363 -222 l 186 342 l 89 342 l 89 431 l 263 431 l 422 -103 l 685 1083 l 786 1083 z "},"∞":{"ha":1382,"x_min":40,"x_max":1343,"o":"m 1000 756 q 1254 647 1165 756 q 1343 368 1343 538 q 1253 90 1343 199 q 997 -19 1164 -19 q 686 186 783 -19 q 562 29 633 78 q 382 -19 490 -19 q 129 90 218 -19 q 40 368 40 199 q 130 647 40 539 q 386 756 219 756 q 697 550 600 756 q 821 707 750 658 q 1000 756 892 756 m 389 92 q 524 159 468 92 q 596 368 579 226 q 389 644 546 644 q 254 567 307 644 q 201 368 201 490 q 254 169 201 246 q 389 92 307 92 m 993 92 q 1128 169 1076 92 q 1181 368 1181 246 q 1128 567 1181 490 q 993 644 1076 644 q 860 577 915 644 q 788 368 804 510 q 993 92 838 92 z "},"∫":{"ha":833,"x_min":235,"x_max":599,"o":"m 485 1047 q 599 1017 554 1047 l 578 929 q 493 956 540 956 q 418 915 447 956 q 389 801 389 875 q 403 660 389 736 q 467 422 418 585 q 546 32 546 156 q 491 -154 546 -86 q 349 -222 436 -222 q 235 -192 279 -222 l 256 -104 q 340 -131 293 -131 q 415 -90 386 -131 q 444 25 444 -50 q 430 165 444 90 q 367 403 415 240 q 288 794 288 669 q 342 979 288 911 q 485 1047 397 1047 z "},"≈":{"ha":835,"x_min":97,"x_max":736,"o":"m 271 629 q 342 617 310 629 q 435 572 374 606 q 567 524 525 524 q 671 590 626 524 l 736 533 q 561 424 667 424 q 490 435 522 424 q 397 481 458 447 q 267 529 304 529 q 163 461 207 529 l 97 522 q 271 629 165 629 m 271 393 q 342 381 310 393 q 435 336 374 369 q 567 288 525 288 q 671 354 626 288 l 736 297 q 561 188 667 188 q 490 199 522 188 q 397 244 458 211 q 267 293 304 293 q 163 225 207 293 l 97 286 q 271 393 165 393 z "},"≠":{"ha":835,"x_min":114,"x_max":721,"o":"m 522 533 l 418 344 l 721 344 l 721 256 l 368 256 l 296 126 l 190 126 l 263 256 l 114 256 l 114 344 l 313 344 l 417 533 l 114 533 l 114 622 l 467 622 l 539 751 l 644 751 l 572 622 l 721 622 l 721 533 l 522 533 z "},"≤":{"ha":835,"x_min":136,"x_max":726,"o":"m 726 606 l 236 431 l 726 258 l 726 149 l 136 374 l 136 492 l 726 715 l 726 606 m 136 92 l 726 92 l 726 0 l 136 0 l 136 92 z "},"≥":{"ha":835,"x_min":108,"x_max":696,"o":"m 696 492 l 696 374 l 108 149 l 108 258 l 596 433 l 108 606 l 108 715 l 696 492 m 108 92 l 696 92 l 696 0 l 108 0 l 108 92 z "},"◊":{"ha":726,"x_min":74,"x_max":653,"o":"m 653 479 l 424 0 l 303 0 l 74 479 l 303 958 l 424 958 l 653 479 m 538 479 l 364 858 l 189 479 l 364 100 l 538 479 z "},"ﬁ":{"ha":775,"x_min":29,"x_max":675,"o":"m 675 732 l 675 0 l 524 0 l 524 625 l 260 625 l 260 0 l 108 0 l 108 625 l 29 625 l 29 732 l 108 732 l 108 749 q 111 835 108 810 q 197 994 122 940 q 428 1047 272 1047 q 524 1039 481 1047 l 524 925 q 330 912 388 935 q 264 826 272 889 q 260 757 260 797 l 260 732 l 675 732 z "},"ﬂ":{"ha":765,"x_min":29,"x_max":735,"o":"m 646 156 q 668 109 649 121 q 735 103 688 97 l 735 -1 q 631 -8 679 -8 q 494 115 500 -8 q 493 221 493 143 l 493 926 q 400 936 454 936 q 250 826 264 936 q 246 757 246 797 l 246 732 l 397 732 l 397 625 l 246 625 l 246 0 l 94 0 l 94 625 l 29 625 l 29 732 l 94 732 l 94 749 q 97 832 94 807 q 404 1047 119 1047 q 644 1017 554 1047 l 644 225 q 646 156 644 178 z "}}}
